<mxfile host="Electron" modified="2024-04-19T13:33:52.876Z" agent="Mozilla/5.0 (Macintosh; Intel Mac OS X 10_15_7) AppleWebKit/537.36 (KHTML, like Gecko) draw.io/24.2.5 Chrome/120.0.6099.109 Electron/28.1.0 Safari/537.36" etag="5kDRjX1eO6YZtW5S3jr3" version="24.2.5" type="device" pages="3">
  <diagram id="cmpXYvQYOxmgwdgMSDEy" name="overall">
    <mxGraphModel dx="2897" dy="1743" grid="1" gridSize="10" guides="1" tooltips="1" connect="1" arrows="1" fold="1" page="0" pageScale="1" pageWidth="850" pageHeight="1100" math="0" shadow="0">
      <root>
        <mxCell id="0" />
        <mxCell id="1" parent="0" />
        <mxCell id="0vnqSVPfwARDzqrzQBr7-1" value="" style="rounded=0;whiteSpace=wrap;html=1;strokeColor=none;fillColor=#D5E8D4;" parent="1" vertex="1">
          <mxGeometry x="3110" y="290" width="310" height="530" as="geometry" />
        </mxCell>
        <mxCell id="0vnqSVPfwARDzqrzQBr7-2" value="" style="rounded=0;whiteSpace=wrap;html=1;strokeColor=none;fillColor=#D4E1F5;" parent="1" vertex="1">
          <mxGeometry x="3110" y="820" width="310" height="530" as="geometry" />
        </mxCell>
        <mxCell id="0vnqSVPfwARDzqrzQBr7-3" value="" style="rounded=0;whiteSpace=wrap;html=1;strokeColor=none;fillColor=#F9F7ED;" parent="1" vertex="1">
          <mxGeometry x="2780" y="530" width="330" height="530" as="geometry" />
        </mxCell>
        <mxCell id="0vnqSVPfwARDzqrzQBr7-4" value="" style="rounded=0;whiteSpace=wrap;html=1;strokeColor=none;fillColor=#FFE6CC;" parent="1" vertex="1">
          <mxGeometry x="2490" y="530" width="290" height="530" as="geometry" />
        </mxCell>
        <mxCell id="0vnqSVPfwARDzqrzQBr7-5" value="" style="rounded=0;whiteSpace=wrap;html=1;strokeColor=none;fillColor=#D5E8D4;" parent="1" vertex="1">
          <mxGeometry x="2080.64" y="243" width="409.36" height="530" as="geometry" />
        </mxCell>
        <mxCell id="0vnqSVPfwARDzqrzQBr7-6" value="" style="rounded=0;whiteSpace=wrap;html=1;strokeColor=none;fillColor=#D4E1F5;" parent="1" vertex="1">
          <mxGeometry x="2490" width="290" height="530" as="geometry" />
        </mxCell>
        <mxCell id="0vnqSVPfwARDzqrzQBr7-7" value="" style="rounded=0;whiteSpace=wrap;html=1;strokeColor=none;fillColor=#F9F7ED;" parent="1" vertex="1">
          <mxGeometry x="110" y="334" width="440" height="530" as="geometry" />
        </mxCell>
        <mxCell id="0vnqSVPfwARDzqrzQBr7-8" value="" style="rounded=0;whiteSpace=wrap;html=1;strokeColor=none;fillColor=#D5E8D4;" parent="1" vertex="1">
          <mxGeometry x="550" y="334" width="370" height="530" as="geometry" />
        </mxCell>
        <mxCell id="0vnqSVPfwARDzqrzQBr7-9" style="edgeStyle=orthogonalEdgeStyle;rounded=0;orthogonalLoop=1;jettySize=auto;html=1;exitX=1;exitY=0.5;exitDx=0;exitDy=0;entryX=0;entryY=0.5;entryDx=0;entryDy=0;entryPerimeter=0;" parent="1" source="0vnqSVPfwARDzqrzQBr7-11" target="0vnqSVPfwARDzqrzQBr7-13" edge="1">
          <mxGeometry relative="1" as="geometry" />
        </mxCell>
        <mxCell id="0vnqSVPfwARDzqrzQBr7-10" style="edgeStyle=orthogonalEdgeStyle;rounded=0;orthogonalLoop=1;jettySize=auto;html=1;exitX=0.25;exitY=1;exitDx=0;exitDy=0;entryX=1;entryY=0.5;entryDx=0;entryDy=0;dashed=1;" parent="1" source="0vnqSVPfwARDzqrzQBr7-11" target="0vnqSVPfwARDzqrzQBr7-14" edge="1">
          <mxGeometry relative="1" as="geometry" />
        </mxCell>
        <mxCell id="0vnqSVPfwARDzqrzQBr7-11" value="submission ingest" style="shape=process;whiteSpace=wrap;html=1;backgroundOutline=1;" parent="1" vertex="1">
          <mxGeometry x="650" y="589" width="120" height="60" as="geometry" />
        </mxCell>
        <mxCell id="0vnqSVPfwARDzqrzQBr7-12" value="submission ingest" style="text;html=1;align=center;verticalAlign=middle;resizable=0;points=[];autosize=1;" parent="1" vertex="1">
          <mxGeometry x="675" y="844" width="110" height="20" as="geometry" />
        </mxCell>
        <mxCell id="0vnqSVPfwARDzqrzQBr7-13" value="signing submission&lt;br&gt;(pre-auth)" style="shape=note;whiteSpace=wrap;html=1;backgroundOutline=1;darkOpacity=0.05;size=19;" parent="1" vertex="1">
          <mxGeometry x="810" y="569" width="80" height="100" as="geometry" />
        </mxCell>
        <mxCell id="0vnqSVPfwARDzqrzQBr7-14" value="submission rejected" style="text;html=1;strokeColor=none;fillColor=none;align=center;verticalAlign=middle;whiteSpace=wrap;rounded=0;" parent="1" vertex="1">
          <mxGeometry x="550" y="676.5" width="80" height="40" as="geometry" />
        </mxCell>
        <mxCell id="0vnqSVPfwARDzqrzQBr7-15" style="edgeStyle=orthogonalEdgeStyle;rounded=0;orthogonalLoop=1;jettySize=auto;html=1;exitX=1;exitY=0.5;exitDx=0;exitDy=0;entryX=0;entryY=0.5;entryDx=0;entryDy=0;entryPerimeter=0;" parent="1" source="0vnqSVPfwARDzqrzQBr7-16" target="0vnqSVPfwARDzqrzQBr7-20" edge="1">
          <mxGeometry relative="1" as="geometry" />
        </mxCell>
        <mxCell id="0vnqSVPfwARDzqrzQBr7-16" value="create signing submission" style="shape=process;whiteSpace=wrap;html=1;backgroundOutline=1;" parent="1" vertex="1">
          <mxGeometry x="270" y="589" width="120" height="60" as="geometry" />
        </mxCell>
        <mxCell id="0vnqSVPfwARDzqrzQBr7-17" value="create signing submission" style="text;html=1;align=center;verticalAlign=middle;resizable=0;points=[];autosize=1;" parent="1" vertex="1">
          <mxGeometry x="255" y="844" width="150" height="20" as="geometry" />
        </mxCell>
        <mxCell id="0vnqSVPfwARDzqrzQBr7-18" style="edgeStyle=orthogonalEdgeStyle;rounded=0;orthogonalLoop=1;jettySize=auto;html=1;entryX=0;entryY=0.25;entryDx=0;entryDy=0;strokeColor=#FF8000;" parent="1" source="0vnqSVPfwARDzqrzQBr7-19" target="0vnqSVPfwARDzqrzQBr7-16" edge="1">
          <mxGeometry relative="1" as="geometry" />
        </mxCell>
        <mxCell id="0vnqSVPfwARDzqrzQBr7-19" value="unsigned object" style="shape=note;whiteSpace=wrap;html=1;backgroundOutline=1;darkOpacity=0.05;size=26;" parent="1" vertex="1">
          <mxGeometry x="130" y="488" width="79.5" height="100" as="geometry" />
        </mxCell>
        <mxCell id="0vnqSVPfwARDzqrzQBr7-20" value="signing submission" style="shape=note;whiteSpace=wrap;html=1;backgroundOutline=1;darkOpacity=0.05;size=26;" parent="1" vertex="1">
          <mxGeometry x="440" y="569" width="80" height="100" as="geometry" />
        </mxCell>
        <mxCell id="0vnqSVPfwARDzqrzQBr7-21" style="edgeStyle=orthogonalEdgeStyle;rounded=0;orthogonalLoop=1;jettySize=auto;html=1;dashed=1;strokeColor=#0000FF;entryX=0.5;entryY=0;entryDx=0;entryDy=0;" parent="1" source="0vnqSVPfwARDzqrzQBr7-22" target="0vnqSVPfwARDzqrzQBr7-16" edge="1">
          <mxGeometry relative="1" as="geometry">
            <Array as="points">
              <mxPoint x="330" y="510" />
              <mxPoint x="330" y="510" />
            </Array>
          </mxGeometry>
        </mxCell>
        <mxCell id="0vnqSVPfwARDzqrzQBr7-22" value="&lt;span style=&quot;background-color: rgb(249 , 247 , 237)&quot;&gt;Developer&lt;/span&gt;" style="shape=umlActor;verticalLabelPosition=bottom;verticalAlign=top;html=1;outlineConnect=0;fillColor=none;" parent="1" vertex="1">
          <mxGeometry x="315" y="360.5" width="30" height="60" as="geometry" />
        </mxCell>
        <mxCell id="0vnqSVPfwARDzqrzQBr7-23" style="edgeStyle=orthogonalEdgeStyle;rounded=0;orthogonalLoop=1;jettySize=auto;html=1;strokeColor=#FF8000;exitX=1.013;exitY=0.5;exitDx=0;exitDy=0;exitPerimeter=0;entryX=0;entryY=0.5;entryDx=0;entryDy=0;" parent="1" source="0vnqSVPfwARDzqrzQBr7-20" target="0vnqSVPfwARDzqrzQBr7-11" edge="1">
          <mxGeometry relative="1" as="geometry">
            <mxPoint x="140" y="894" as="sourcePoint" />
            <mxPoint x="149" y="180" as="targetPoint" />
            <Array as="points" />
          </mxGeometry>
        </mxCell>
        <mxCell id="0vnqSVPfwARDzqrzQBr7-24" value="signed&lt;br&gt;object / hash datastore" style="shape=cylinder3;whiteSpace=wrap;html=1;boundedLbl=1;backgroundOutline=1;size=15;" parent="1" vertex="1">
          <mxGeometry x="3309.68" y="525.5" width="80" height="100" as="geometry" />
        </mxCell>
        <mxCell id="0vnqSVPfwARDzqrzQBr7-25" value="CV - PV cross-reference&lt;br&gt;database" style="shape=cylinder3;whiteSpace=wrap;html=1;boundedLbl=1;backgroundOutline=1;size=15;" parent="1" vertex="1">
          <mxGeometry x="3309.6800000000003" y="1055.5" width="80" height="99" as="geometry" />
        </mxCell>
        <mxCell id="0vnqSVPfwARDzqrzQBr7-26" value="" style="rounded=0;whiteSpace=wrap;html=1;strokeColor=none;fillColor=#D4E1F5;" parent="1" vertex="1">
          <mxGeometry x="920" y="334" width="440" height="530" as="geometry" />
        </mxCell>
        <mxCell id="0vnqSVPfwARDzqrzQBr7-27" value="" style="rounded=0;whiteSpace=wrap;html=1;strokeColor=none;fillColor=#FFE6CC;" parent="1" vertex="1">
          <mxGeometry x="1360" y="243" width="360" height="530" as="geometry" />
        </mxCell>
        <mxCell id="0vnqSVPfwARDzqrzQBr7-28" style="edgeStyle=orthogonalEdgeStyle;rounded=0;orthogonalLoop=1;jettySize=auto;html=1;exitX=0.25;exitY=1;exitDx=0;exitDy=0;dashed=1;entryX=1.011;entryY=0.55;entryDx=0;entryDy=0;entryPerimeter=0;" parent="1" source="0vnqSVPfwARDzqrzQBr7-36" target="0vnqSVPfwARDzqrzQBr7-38" edge="1">
          <mxGeometry relative="1" as="geometry">
            <mxPoint x="1406" y="603" as="targetPoint" />
            <Array as="points">
              <mxPoint x="1480" y="607" />
            </Array>
          </mxGeometry>
        </mxCell>
        <mxCell id="0vnqSVPfwARDzqrzQBr7-29" style="edgeStyle=orthogonalEdgeStyle;rounded=0;orthogonalLoop=1;jettySize=auto;html=1;exitX=1;exitY=0.25;exitDx=0;exitDy=0;entryX=0;entryY=0.5;entryDx=0;entryDy=0;entryPerimeter=0;" parent="1" source="0vnqSVPfwARDzqrzQBr7-31" target="0vnqSVPfwARDzqrzQBr7-41" edge="1">
          <mxGeometry relative="1" as="geometry">
            <mxPoint x="1210" y="619" as="targetPoint" />
          </mxGeometry>
        </mxCell>
        <mxCell id="0vnqSVPfwARDzqrzQBr7-30" style="edgeStyle=orthogonalEdgeStyle;rounded=0;orthogonalLoop=1;jettySize=auto;html=1;exitX=1;exitY=0.75;exitDx=0;exitDy=0;entryX=0;entryY=0.5;entryDx=0;entryDy=0;entryPerimeter=0;dashed=1;" parent="1" source="0vnqSVPfwARDzqrzQBr7-31" target="0vnqSVPfwARDzqrzQBr7-52" edge="1">
          <mxGeometry relative="1" as="geometry" />
        </mxCell>
        <mxCell id="0vnqSVPfwARDzqrzQBr7-31" value="unwrap submission" style="shape=process;whiteSpace=wrap;html=1;backgroundOutline=1;" parent="1" vertex="1">
          <mxGeometry x="1075" y="574.5" width="120" height="60" as="geometry" />
        </mxCell>
        <mxCell id="0vnqSVPfwARDzqrzQBr7-32" value="unwrap submission" style="text;html=1;align=center;verticalAlign=middle;resizable=0;points=[];autosize=1;" parent="1" vertex="1">
          <mxGeometry x="1075" y="844" width="120" height="20" as="geometry" />
        </mxCell>
        <mxCell id="0vnqSVPfwARDzqrzQBr7-33" value="single-scan unsigned object" style="shape=note;whiteSpace=wrap;html=1;backgroundOutline=1;darkOpacity=0.05;size=31;" parent="1" vertex="1">
          <mxGeometry x="1620" y="478" width="80" height="100" as="geometry" />
        </mxCell>
        <mxCell id="0vnqSVPfwARDzqrzQBr7-34" style="edgeStyle=orthogonalEdgeStyle;rounded=0;orthogonalLoop=1;jettySize=auto;html=1;exitX=1;exitY=0.5;exitDx=0;exitDy=0;entryX=0;entryY=0.5;entryDx=0;entryDy=0;entryPerimeter=0;" parent="1" source="0vnqSVPfwARDzqrzQBr7-36" target="0vnqSVPfwARDzqrzQBr7-33" edge="1">
          <mxGeometry relative="1" as="geometry" />
        </mxCell>
        <mxCell id="0vnqSVPfwARDzqrzQBr7-35" style="edgeStyle=orthogonalEdgeStyle;rounded=0;orthogonalLoop=1;jettySize=auto;html=1;exitX=0.5;exitY=1;exitDx=0;exitDy=0;entryX=0.5;entryY=0;entryDx=0;entryDy=0;" parent="1" source="0vnqSVPfwARDzqrzQBr7-36" target="0vnqSVPfwARDzqrzQBr7-39" edge="1">
          <mxGeometry relative="1" as="geometry" />
        </mxCell>
        <mxCell id="0vnqSVPfwARDzqrzQBr7-36" value="virus scan 1" style="shape=process;whiteSpace=wrap;html=1;backgroundOutline=1;" parent="1" vertex="1">
          <mxGeometry x="1450" y="498" width="120" height="60" as="geometry" />
        </mxCell>
        <mxCell id="0vnqSVPfwARDzqrzQBr7-37" value="virus scan 1" style="text;html=1;strokeColor=none;fillColor=none;align=center;verticalAlign=middle;whiteSpace=wrap;rounded=0;" parent="1" vertex="1">
          <mxGeometry x="1360" y="753" width="360" height="20" as="geometry" />
        </mxCell>
        <mxCell id="0vnqSVPfwARDzqrzQBr7-38" value="AV scan&lt;br&gt;failed" style="text;html=1;align=center;verticalAlign=middle;resizable=0;points=[];autosize=1;" parent="1" vertex="1">
          <mxGeometry x="1360" y="590.5" width="60" height="30" as="geometry" />
        </mxCell>
        <mxCell id="0vnqSVPfwARDzqrzQBr7-39" value="virus scan 1 report&amp;nbsp;" style="shape=document;whiteSpace=wrap;html=1;boundedLbl=1;" parent="1" vertex="1">
          <mxGeometry x="1450" y="637" width="120" height="80" as="geometry" />
        </mxCell>
        <mxCell id="0vnqSVPfwARDzqrzQBr7-40" style="edgeStyle=orthogonalEdgeStyle;rounded=0;orthogonalLoop=1;jettySize=auto;html=1;strokeColor=#FF8000;exitX=0.992;exitY=0.525;exitDx=0;exitDy=0;exitPerimeter=0;entryX=0;entryY=0.5;entryDx=0;entryDy=0;" parent="1" source="0vnqSVPfwARDzqrzQBr7-41" target="0vnqSVPfwARDzqrzQBr7-36" edge="1">
          <mxGeometry relative="1" as="geometry">
            <Array as="points">
              <mxPoint x="1450" y="528" />
            </Array>
            <mxPoint x="1460" y="1070" as="targetPoint" />
          </mxGeometry>
        </mxCell>
        <mxCell id="0vnqSVPfwARDzqrzQBr7-41" value="unsigned object" style="shape=note;whiteSpace=wrap;html=1;backgroundOutline=1;darkOpacity=0.05;size=31;" parent="1" vertex="1">
          <mxGeometry x="1240" y="474.5" width="80" height="100" as="geometry" />
        </mxCell>
        <mxCell id="0vnqSVPfwARDzqrzQBr7-42" value="unsigned object&lt;br&gt;metadata" style="shape=note;whiteSpace=wrap;html=1;backgroundOutline=1;darkOpacity=0.05;size=26;dashed=1;" parent="1" vertex="1">
          <mxGeometry x="130" y="648" width="79.5" height="100" as="geometry" />
        </mxCell>
        <mxCell id="0vnqSVPfwARDzqrzQBr7-43" style="edgeStyle=orthogonalEdgeStyle;rounded=0;orthogonalLoop=1;jettySize=auto;html=1;entryX=0;entryY=0.75;entryDx=0;entryDy=0;strokeColor=#FF8000;dashed=1;" parent="1" source="0vnqSVPfwARDzqrzQBr7-42" target="0vnqSVPfwARDzqrzQBr7-16" edge="1">
          <mxGeometry relative="1" as="geometry">
            <mxPoint x="277.25" y="758" as="targetPoint" />
          </mxGeometry>
        </mxCell>
        <mxCell id="0vnqSVPfwARDzqrzQBr7-44" style="edgeStyle=orthogonalEdgeStyle;rounded=0;orthogonalLoop=1;jettySize=auto;html=1;exitX=0.75;exitY=1;exitDx=0;exitDy=0;entryX=0;entryY=0.5;entryDx=0;entryDy=0;dashed=1;" parent="1" source="0vnqSVPfwARDzqrzQBr7-11" target="0vnqSVPfwARDzqrzQBr7-45" edge="1">
          <mxGeometry relative="1" as="geometry">
            <mxPoint x="920" y="636.5" as="sourcePoint" />
          </mxGeometry>
        </mxCell>
        <mxCell id="0vnqSVPfwARDzqrzQBr7-45" value="authorization required" style="text;html=1;strokeColor=none;fillColor=none;align=center;verticalAlign=middle;whiteSpace=wrap;rounded=0;" parent="1" vertex="1">
          <mxGeometry x="785" y="676.5" width="80" height="40" as="geometry" />
        </mxCell>
        <mxCell id="0vnqSVPfwARDzqrzQBr7-46" value="authorization rejected" style="text;html=1;strokeColor=none;fillColor=none;align=center;verticalAlign=middle;whiteSpace=wrap;rounded=0;" parent="1" vertex="1">
          <mxGeometry x="949.36" y="664.5" width="80" height="40" as="geometry" />
        </mxCell>
        <mxCell id="0vnqSVPfwARDzqrzQBr7-47" style="edgeStyle=orthogonalEdgeStyle;rounded=0;orthogonalLoop=1;jettySize=auto;html=1;exitX=0.25;exitY=1;exitDx=0;exitDy=0;entryX=1;entryY=0.5;entryDx=0;entryDy=0;dashed=1;" parent="1" source="0vnqSVPfwARDzqrzQBr7-31" target="0vnqSVPfwARDzqrzQBr7-46" edge="1">
          <mxGeometry relative="1" as="geometry">
            <mxPoint x="1050" y="649" as="sourcePoint" />
          </mxGeometry>
        </mxCell>
        <mxCell id="0vnqSVPfwARDzqrzQBr7-48" style="edgeStyle=orthogonalEdgeStyle;rounded=0;orthogonalLoop=1;jettySize=auto;html=1;strokeColor=#FF8000;entryX=0;entryY=0.75;entryDx=0;entryDy=0;" parent="1" target="0vnqSVPfwARDzqrzQBr7-31" edge="1">
          <mxGeometry relative="1" as="geometry">
            <mxPoint x="890" y="619" as="sourcePoint" />
            <mxPoint x="660" y="629" as="targetPoint" />
            <Array as="points" />
          </mxGeometry>
        </mxCell>
        <mxCell id="0vnqSVPfwARDzqrzQBr7-49" value="authorization response" style="shape=note;whiteSpace=wrap;html=1;backgroundOutline=1;darkOpacity=0.05;size=31;dashed=1;" parent="1" vertex="1">
          <mxGeometry x="940" y="474.5" width="80" height="100" as="geometry" />
        </mxCell>
        <mxCell id="0vnqSVPfwARDzqrzQBr7-50" style="edgeStyle=orthogonalEdgeStyle;rounded=0;orthogonalLoop=1;jettySize=auto;html=1;entryX=0;entryY=0.25;entryDx=0;entryDy=0;strokeColor=#FF8000;exitX=0;exitY=0;exitDx=80;exitDy=65.5;exitPerimeter=0;dashed=1;" parent="1" source="0vnqSVPfwARDzqrzQBr7-49" target="0vnqSVPfwARDzqrzQBr7-31" edge="1">
          <mxGeometry relative="1" as="geometry">
            <Array as="points">
              <mxPoint x="1040" y="540" />
              <mxPoint x="1040" y="590" />
            </Array>
            <mxPoint x="1200" y="511" as="targetPoint" />
          </mxGeometry>
        </mxCell>
        <mxCell id="0vnqSVPfwARDzqrzQBr7-51" style="edgeStyle=orthogonalEdgeStyle;rounded=0;orthogonalLoop=1;jettySize=auto;html=1;entryX=0;entryY=0.75;entryDx=0;entryDy=0;strokeColor=#FF8000;dashed=1;" parent="1" source="0vnqSVPfwARDzqrzQBr7-52" target="0vnqSVPfwARDzqrzQBr7-68" edge="1">
          <mxGeometry relative="1" as="geometry">
            <Array as="points">
              <mxPoint x="1340" y="685" />
              <mxPoint x="1340" y="790" />
              <mxPoint x="2110" y="790" />
              <mxPoint x="2110" y="543" />
            </Array>
          </mxGeometry>
        </mxCell>
        <mxCell id="0vnqSVPfwARDzqrzQBr7-52" value="object metadata" style="shape=note;whiteSpace=wrap;html=1;backgroundOutline=1;darkOpacity=0.05;size=31;dashed=1;" parent="1" vertex="1">
          <mxGeometry x="1240" y="634.5" width="80" height="100" as="geometry" />
        </mxCell>
        <mxCell id="0vnqSVPfwARDzqrzQBr7-53" value="" style="rounded=0;whiteSpace=wrap;html=1;strokeColor=none;fillColor=#F9F7ED;" parent="1" vertex="1">
          <mxGeometry x="1720" y="243" width="360" height="530" as="geometry" />
        </mxCell>
        <mxCell id="0vnqSVPfwARDzqrzQBr7-54" value="virus scan 2" style="shape=process;whiteSpace=wrap;html=1;backgroundOutline=1;" parent="1" vertex="1">
          <mxGeometry x="1810.6399999999999" y="498" width="120" height="60" as="geometry" />
        </mxCell>
        <mxCell id="0vnqSVPfwARDzqrzQBr7-55" style="edgeStyle=orthogonalEdgeStyle;rounded=0;orthogonalLoop=1;jettySize=auto;html=1;exitX=0.25;exitY=1;exitDx=0;exitDy=0;dashed=1;entryX=1.011;entryY=0.55;entryDx=0;entryDy=0;entryPerimeter=0;" parent="1" source="0vnqSVPfwARDzqrzQBr7-54" edge="1">
          <mxGeometry relative="1" as="geometry">
            <mxPoint x="1781.2999999999993" y="608" as="targetPoint" />
            <Array as="points">
              <mxPoint x="1840.6399999999999" y="608" />
            </Array>
          </mxGeometry>
        </mxCell>
        <mxCell id="0vnqSVPfwARDzqrzQBr7-56" value="AV scan&lt;br&gt;failed" style="text;html=1;align=center;verticalAlign=middle;resizable=0;points=[];autosize=1;" parent="1" vertex="1">
          <mxGeometry x="1720.6399999999999" y="590.5" width="60" height="30" as="geometry" />
        </mxCell>
        <mxCell id="0vnqSVPfwARDzqrzQBr7-57" value="virus scan 2 report&amp;nbsp;" style="shape=document;whiteSpace=wrap;html=1;boundedLbl=1;" parent="1" vertex="1">
          <mxGeometry x="1810.6399999999999" y="637" width="120" height="80" as="geometry" />
        </mxCell>
        <mxCell id="0vnqSVPfwARDzqrzQBr7-58" style="edgeStyle=orthogonalEdgeStyle;rounded=0;orthogonalLoop=1;jettySize=auto;html=1;exitX=0.5;exitY=1;exitDx=0;exitDy=0;entryX=0.5;entryY=0;entryDx=0;entryDy=0;" parent="1" source="0vnqSVPfwARDzqrzQBr7-54" target="0vnqSVPfwARDzqrzQBr7-57" edge="1">
          <mxGeometry relative="1" as="geometry" />
        </mxCell>
        <mxCell id="0vnqSVPfwARDzqrzQBr7-59" style="edgeStyle=orthogonalEdgeStyle;rounded=0;orthogonalLoop=1;jettySize=auto;html=1;exitX=1;exitY=0.5;exitDx=0;exitDy=0;entryX=0;entryY=0.5;entryDx=0;entryDy=0;entryPerimeter=0;" parent="1" source="0vnqSVPfwARDzqrzQBr7-54" target="0vnqSVPfwARDzqrzQBr7-61" edge="1">
          <mxGeometry relative="1" as="geometry" />
        </mxCell>
        <mxCell id="0vnqSVPfwARDzqrzQBr7-60" style="edgeStyle=orthogonalEdgeStyle;rounded=0;orthogonalLoop=1;jettySize=auto;html=1;entryX=0;entryY=0.5;entryDx=0;entryDy=0;" parent="1" source="0vnqSVPfwARDzqrzQBr7-61" target="0vnqSVPfwARDzqrzQBr7-68" edge="1">
          <mxGeometry relative="1" as="geometry" />
        </mxCell>
        <mxCell id="0vnqSVPfwARDzqrzQBr7-61" value="dual-scan unsigned object" style="shape=note;whiteSpace=wrap;html=1;backgroundOutline=1;darkOpacity=0.05;size=31;" parent="1" vertex="1">
          <mxGeometry x="1980.6399999999999" y="478" width="80" height="100" as="geometry" />
        </mxCell>
        <mxCell id="0vnqSVPfwARDzqrzQBr7-62" style="edgeStyle=orthogonalEdgeStyle;rounded=0;orthogonalLoop=1;jettySize=auto;html=1;strokeColor=#FF8000;entryX=0;entryY=0.5;entryDx=0;entryDy=0;exitX=0.995;exitY=0.502;exitDx=0;exitDy=0;exitPerimeter=0;" parent="1" source="0vnqSVPfwARDzqrzQBr7-33" target="0vnqSVPfwARDzqrzQBr7-54" edge="1">
          <mxGeometry relative="1" as="geometry">
            <Array as="points">
              <mxPoint x="1780" y="528" />
              <mxPoint x="1780" y="528" />
            </Array>
            <mxPoint x="1700" y="528" as="sourcePoint" />
            <mxPoint x="1820.6399999999999" y="1070" as="targetPoint" />
          </mxGeometry>
        </mxCell>
        <mxCell id="0vnqSVPfwARDzqrzQBr7-63" value="virus scan 2" style="text;html=1;strokeColor=none;fillColor=none;align=center;verticalAlign=middle;whiteSpace=wrap;rounded=0;" parent="1" vertex="1">
          <mxGeometry x="1720.6399999999999" y="753" width="360" height="20" as="geometry" />
        </mxCell>
        <mxCell id="0vnqSVPfwARDzqrzQBr7-64" style="edgeStyle=orthogonalEdgeStyle;rounded=0;orthogonalLoop=1;jettySize=auto;html=1;exitX=1;exitY=0.5;exitDx=0;exitDy=0;entryX=0;entryY=0.5;entryDx=0;entryDy=0;entryPerimeter=0;" parent="1" source="0vnqSVPfwARDzqrzQBr7-68" target="0vnqSVPfwARDzqrzQBr7-71" edge="1">
          <mxGeometry relative="1" as="geometry" />
        </mxCell>
        <mxCell id="0vnqSVPfwARDzqrzQBr7-65" style="edgeStyle=orthogonalEdgeStyle;rounded=0;orthogonalLoop=1;jettySize=auto;html=1;exitX=0.25;exitY=1;exitDx=0;exitDy=0;entryX=1;entryY=0.5;entryDx=0;entryDy=0;dashed=1;" parent="1" source="0vnqSVPfwARDzqrzQBr7-68" target="0vnqSVPfwARDzqrzQBr7-72" edge="1">
          <mxGeometry relative="1" as="geometry" />
        </mxCell>
        <mxCell id="0vnqSVPfwARDzqrzQBr7-66" style="edgeStyle=orthogonalEdgeStyle;rounded=0;orthogonalLoop=1;jettySize=auto;html=1;exitX=1;exitY=0.25;exitDx=0;exitDy=0;entryX=0;entryY=0.5;entryDx=0;entryDy=0;entryPerimeter=0;strokeColor=#000000;" parent="1" source="0vnqSVPfwARDzqrzQBr7-68" target="0vnqSVPfwARDzqrzQBr7-79" edge="1">
          <mxGeometry relative="1" as="geometry" />
        </mxCell>
        <mxCell id="0vnqSVPfwARDzqrzQBr7-67" style="edgeStyle=orthogonalEdgeStyle;rounded=0;orthogonalLoop=1;jettySize=auto;html=1;exitX=1;exitY=0.75;exitDx=0;exitDy=0;entryX=0;entryY=0.5;entryDx=0;entryDy=0;entryPerimeter=0;" parent="1" source="0vnqSVPfwARDzqrzQBr7-68" target="0vnqSVPfwARDzqrzQBr7-103" edge="1">
          <mxGeometry relative="1" as="geometry" />
        </mxCell>
        <mxCell id="0vnqSVPfwARDzqrzQBr7-68" value="sign object" style="shape=process;whiteSpace=wrap;html=1;backgroundOutline=1;" parent="1" vertex="1">
          <mxGeometry x="2220.0000000000005" y="498" width="120" height="60" as="geometry" />
        </mxCell>
        <mxCell id="0vnqSVPfwARDzqrzQBr7-69" value="sign object" style="text;html=1;align=center;verticalAlign=middle;resizable=0;points=[];autosize=1;" parent="1" vertex="1">
          <mxGeometry x="2250.32" y="753" width="70" height="20" as="geometry" />
        </mxCell>
        <mxCell id="0vnqSVPfwARDzqrzQBr7-70" style="edgeStyle=orthogonalEdgeStyle;rounded=0;orthogonalLoop=1;jettySize=auto;html=1;entryX=0;entryY=0.25;entryDx=0;entryDy=0;strokeColor=#FF8000;" parent="1" source="0vnqSVPfwARDzqrzQBr7-71" target="0vnqSVPfwARDzqrzQBr7-84" edge="1">
          <mxGeometry relative="1" as="geometry">
            <Array as="points">
              <mxPoint x="2480" y="528" />
              <mxPoint x="2480" y="640" />
              <mxPoint x="2510" y="640" />
              <mxPoint x="2510" y="800" />
            </Array>
          </mxGeometry>
        </mxCell>
        <mxCell id="0vnqSVPfwARDzqrzQBr7-71" value="signed&lt;br&gt;object" style="shape=note;whiteSpace=wrap;html=1;backgroundOutline=1;darkOpacity=0.05;size=19;" parent="1" vertex="1">
          <mxGeometry x="2380.0000000000005" y="478" width="80" height="100" as="geometry" />
        </mxCell>
        <mxCell id="0vnqSVPfwARDzqrzQBr7-72" value="signing rejected" style="text;html=1;strokeColor=none;fillColor=none;align=center;verticalAlign=middle;whiteSpace=wrap;rounded=0;" parent="1" vertex="1">
          <mxGeometry x="2130" y="585.5" width="59.36" height="40" as="geometry" />
        </mxCell>
        <mxCell id="0vnqSVPfwARDzqrzQBr7-73" style="edgeStyle=orthogonalEdgeStyle;rounded=0;orthogonalLoop=1;jettySize=auto;html=1;exitX=1;exitY=0.5;exitDx=0;exitDy=0;entryX=0;entryY=0.5;entryDx=0;entryDy=0;entryPerimeter=0;" parent="1" source="0vnqSVPfwARDzqrzQBr7-74" target="0vnqSVPfwARDzqrzQBr7-80" edge="1">
          <mxGeometry relative="1" as="geometry">
            <mxPoint x="2780.0000000000005" y="285" as="targetPoint" />
          </mxGeometry>
        </mxCell>
        <mxCell id="0vnqSVPfwARDzqrzQBr7-74" value="archive&lt;br&gt;signed object" style="shape=process;whiteSpace=wrap;html=1;backgroundOutline=1;" parent="1" vertex="1">
          <mxGeometry x="2510.0000000000005" y="255" width="120" height="60" as="geometry" />
        </mxCell>
        <mxCell id="0vnqSVPfwARDzqrzQBr7-75" value="archive signed object" style="text;html=1;align=center;verticalAlign=middle;resizable=0;points=[];autosize=1;" parent="1" vertex="1">
          <mxGeometry x="2570.0000000000005" y="510" width="130" height="20" as="geometry" />
        </mxCell>
        <mxCell id="0vnqSVPfwARDzqrzQBr7-76" style="edgeStyle=orthogonalEdgeStyle;rounded=0;orthogonalLoop=1;jettySize=auto;html=1;strokeColor=#FF8000;entryX=0;entryY=0.5;entryDx=0;entryDy=0;exitX=0.999;exitY=0.503;exitDx=0;exitDy=0;exitPerimeter=0;" parent="1" source="0vnqSVPfwARDzqrzQBr7-71" target="0vnqSVPfwARDzqrzQBr7-74" edge="1">
          <mxGeometry relative="1" as="geometry">
            <mxPoint x="2420.6400000000003" y="528" as="sourcePoint" />
            <mxPoint x="2190.6400000000003" y="538" as="targetPoint" />
            <Array as="points">
              <mxPoint x="2480" y="528" />
              <mxPoint x="2480" y="285" />
            </Array>
          </mxGeometry>
        </mxCell>
        <mxCell id="0vnqSVPfwARDzqrzQBr7-77" style="edgeStyle=orthogonalEdgeStyle;rounded=0;orthogonalLoop=1;jettySize=auto;html=1;entryX=0;entryY=0.25;entryDx=0;entryDy=0;strokeColor=#FF8000;" parent="1" source="0vnqSVPfwARDzqrzQBr7-78" target="0vnqSVPfwARDzqrzQBr7-68" edge="1">
          <mxGeometry relative="1" as="geometry" />
        </mxCell>
        <mxCell id="0vnqSVPfwARDzqrzQBr7-78" value="signing&lt;br&gt;keys" style="shape=cylinder3;whiteSpace=wrap;html=1;boundedLbl=1;backgroundOutline=1;size=15;" parent="1" vertex="1">
          <mxGeometry x="2100" y="398" width="80" height="100" as="geometry" />
        </mxCell>
        <mxCell id="0vnqSVPfwARDzqrzQBr7-79" value="signing log" style="shape=note;whiteSpace=wrap;html=1;backgroundOutline=1;darkOpacity=0.05;size=31;" parent="1" vertex="1">
          <mxGeometry x="2380.0000000000005" y="350" width="80" height="100" as="geometry" />
        </mxCell>
        <mxCell id="0vnqSVPfwARDzqrzQBr7-80" value="signed&lt;br&gt;object&lt;br&gt;archive" style="shape=cylinder3;whiteSpace=wrap;html=1;boundedLbl=1;backgroundOutline=1;size=15;" parent="1" vertex="1">
          <mxGeometry x="2665" y="235" width="80" height="100" as="geometry" />
        </mxCell>
        <mxCell id="0vnqSVPfwARDzqrzQBr7-81" style="edgeStyle=orthogonalEdgeStyle;rounded=0;orthogonalLoop=1;jettySize=auto;html=1;entryX=0;entryY=0.5;entryDx=0;entryDy=0;strokeColor=#FF8000;" parent="1" source="0vnqSVPfwARDzqrzQBr7-82" target="0vnqSVPfwARDzqrzQBr7-87" edge="1">
          <mxGeometry relative="1" as="geometry" />
        </mxCell>
        <mxCell id="0vnqSVPfwARDzqrzQBr7-82" value="signed&lt;br&gt;object&lt;br&gt;bundle" style="shape=note;whiteSpace=wrap;html=1;backgroundOutline=1;darkOpacity=0.05;size=31;" parent="1" vertex="1">
          <mxGeometry x="2680" y="765" width="80" height="100" as="geometry" />
        </mxCell>
        <mxCell id="0vnqSVPfwARDzqrzQBr7-83" style="edgeStyle=orthogonalEdgeStyle;rounded=0;orthogonalLoop=1;jettySize=auto;html=1;exitX=1;exitY=0.5;exitDx=0;exitDy=0;entryX=0;entryY=0.5;entryDx=0;entryDy=0;entryPerimeter=0;" parent="1" source="0vnqSVPfwARDzqrzQBr7-84" target="0vnqSVPfwARDzqrzQBr7-82" edge="1">
          <mxGeometry relative="1" as="geometry" />
        </mxCell>
        <mxCell id="0vnqSVPfwARDzqrzQBr7-84" value="return&lt;br&gt;signed object" style="shape=process;whiteSpace=wrap;html=1;backgroundOutline=1;" parent="1" vertex="1">
          <mxGeometry x="2530" y="785" width="120" height="60" as="geometry" />
        </mxCell>
        <mxCell id="0vnqSVPfwARDzqrzQBr7-85" value="return signed object" style="text;html=1;strokeColor=none;fillColor=none;align=center;verticalAlign=middle;whiteSpace=wrap;rounded=0;" parent="1" vertex="1">
          <mxGeometry x="2490" y="1040" width="290" height="20" as="geometry" />
        </mxCell>
        <mxCell id="0vnqSVPfwARDzqrzQBr7-86" style="edgeStyle=orthogonalEdgeStyle;rounded=0;orthogonalLoop=1;jettySize=auto;html=1;exitX=1;exitY=0.75;exitDx=0;exitDy=0;entryX=0;entryY=0.5;entryDx=0;entryDy=0;entryPerimeter=0;strokeColor=#000000;" parent="1" source="0vnqSVPfwARDzqrzQBr7-87" target="0vnqSVPfwARDzqrzQBr7-97" edge="1">
          <mxGeometry relative="1" as="geometry" />
        </mxCell>
        <mxCell id="0vnqSVPfwARDzqrzQBr7-87" value="unbundle elements" style="shape=process;whiteSpace=wrap;html=1;backgroundOutline=1;" parent="1" vertex="1">
          <mxGeometry x="2810" y="785" width="120" height="60" as="geometry" />
        </mxCell>
        <mxCell id="0vnqSVPfwARDzqrzQBr7-88" style="edgeStyle=orthogonalEdgeStyle;rounded=0;orthogonalLoop=1;jettySize=auto;html=1;exitX=1;exitY=0.25;exitDx=0;exitDy=0;entryX=0;entryY=0.5;entryDx=0;entryDy=0;entryPerimeter=0;" parent="1" source="0vnqSVPfwARDzqrzQBr7-87" target="0vnqSVPfwARDzqrzQBr7-90" edge="1">
          <mxGeometry relative="1" as="geometry" />
        </mxCell>
        <mxCell id="0vnqSVPfwARDzqrzQBr7-89" style="edgeStyle=orthogonalEdgeStyle;rounded=0;orthogonalLoop=1;jettySize=auto;html=1;entryX=0;entryY=0.25;entryDx=0;entryDy=0;strokeColor=#FF8000;" parent="1" source="0vnqSVPfwARDzqrzQBr7-90" target="0vnqSVPfwARDzqrzQBr7-93" edge="1">
          <mxGeometry relative="1" as="geometry">
            <Array as="points">
              <mxPoint x="3070" y="735" />
              <mxPoint x="3070" y="560" />
            </Array>
          </mxGeometry>
        </mxCell>
        <mxCell id="0vnqSVPfwARDzqrzQBr7-90" value="signed object" style="shape=note;whiteSpace=wrap;html=1;backgroundOutline=1;darkOpacity=0.05;size=31;" parent="1" vertex="1">
          <mxGeometry x="2970" y="685" width="80" height="100" as="geometry" />
        </mxCell>
        <mxCell id="0vnqSVPfwARDzqrzQBr7-91" value="unbundle elements" style="text;html=1;strokeColor=none;fillColor=none;align=center;verticalAlign=middle;whiteSpace=wrap;rounded=0;" parent="1" vertex="1">
          <mxGeometry x="2780.64" y="1040" width="329.36" height="20" as="geometry" />
        </mxCell>
        <mxCell id="0vnqSVPfwARDzqrzQBr7-92" style="edgeStyle=orthogonalEdgeStyle;rounded=0;orthogonalLoop=1;jettySize=auto;html=1;exitX=1;exitY=0.5;exitDx=0;exitDy=0;entryX=0;entryY=0.5;entryDx=0;entryDy=0;entryPerimeter=0;" parent="1" source="0vnqSVPfwARDzqrzQBr7-93" target="0vnqSVPfwARDzqrzQBr7-24" edge="1">
          <mxGeometry relative="1" as="geometry">
            <mxPoint x="3319.0400000000004" y="575.5" as="targetPoint" />
          </mxGeometry>
        </mxCell>
        <mxCell id="0vnqSVPfwARDzqrzQBr7-93" value="update&lt;br&gt;signed object&lt;br&gt;and hash" style="shape=process;whiteSpace=wrap;html=1;backgroundOutline=1;" parent="1" vertex="1">
          <mxGeometry x="3159.3600000000006" y="545.5" width="120" height="60" as="geometry" />
        </mxCell>
        <mxCell id="0vnqSVPfwARDzqrzQBr7-94" value="store object and metadata" style="text;html=1;align=center;verticalAlign=middle;resizable=0;points=[];autosize=1;" parent="1" vertex="1">
          <mxGeometry x="3190.0000000000005" y="800" width="150" height="20" as="geometry" />
        </mxCell>
        <mxCell id="0vnqSVPfwARDzqrzQBr7-95" style="edgeStyle=orthogonalEdgeStyle;rounded=0;orthogonalLoop=1;jettySize=auto;html=1;entryX=0;entryY=0.5;entryDx=0;entryDy=0;strokeColor=#FF8000;" parent="1" source="0vnqSVPfwARDzqrzQBr7-97" target="0vnqSVPfwARDzqrzQBr7-99" edge="1">
          <mxGeometry relative="1" as="geometry">
            <Array as="points">
              <mxPoint x="3130" y="895" />
              <mxPoint x="3130" y="1105" />
            </Array>
          </mxGeometry>
        </mxCell>
        <mxCell id="0vnqSVPfwARDzqrzQBr7-96" style="edgeStyle=orthogonalEdgeStyle;rounded=0;orthogonalLoop=1;jettySize=auto;html=1;entryX=0;entryY=0.75;entryDx=0;entryDy=0;strokeColor=#FF8000;" parent="1" source="0vnqSVPfwARDzqrzQBr7-97" target="0vnqSVPfwARDzqrzQBr7-93" edge="1">
          <mxGeometry relative="1" as="geometry">
            <Array as="points">
              <mxPoint x="3090" y="895" />
              <mxPoint x="3090" y="590" />
            </Array>
          </mxGeometry>
        </mxCell>
        <mxCell id="0vnqSVPfwARDzqrzQBr7-97" value="signed object metadata" style="shape=note;whiteSpace=wrap;html=1;backgroundOutline=1;darkOpacity=0.05;size=31;" parent="1" vertex="1">
          <mxGeometry x="2970" y="845" width="80" height="100" as="geometry" />
        </mxCell>
        <mxCell id="0vnqSVPfwARDzqrzQBr7-98" style="edgeStyle=orthogonalEdgeStyle;rounded=0;orthogonalLoop=1;jettySize=auto;html=1;exitX=1;exitY=0.5;exitDx=0;exitDy=0;entryX=0;entryY=0.5;entryDx=0;entryDy=0;entryPerimeter=0;" parent="1" source="0vnqSVPfwARDzqrzQBr7-99" target="0vnqSVPfwARDzqrzQBr7-25" edge="1">
          <mxGeometry relative="1" as="geometry">
            <mxPoint x="3284.9999999999995" y="1105" as="targetPoint" />
          </mxGeometry>
        </mxCell>
        <mxCell id="0vnqSVPfwARDzqrzQBr7-99" value="update&lt;br&gt;CV - PV&lt;br&gt;data" style="shape=process;whiteSpace=wrap;html=1;backgroundOutline=1;" parent="1" vertex="1">
          <mxGeometry x="3159.3600000000006" y="1075" width="120" height="60" as="geometry" />
        </mxCell>
        <mxCell id="0vnqSVPfwARDzqrzQBr7-100" value="update CV - PV data" style="text;html=1;align=center;verticalAlign=middle;resizable=0;points=[];autosize=1;" parent="1" vertex="1">
          <mxGeometry x="3200.0000000000005" y="1330" width="130" height="20" as="geometry" />
        </mxCell>
        <mxCell id="0vnqSVPfwARDzqrzQBr7-101" value="object signing&lt;br&gt;report&amp;nbsp;" style="shape=document;whiteSpace=wrap;html=1;boundedLbl=1;" parent="1" vertex="1">
          <mxGeometry x="2220" y="637" width="120" height="80" as="geometry" />
        </mxCell>
        <mxCell id="0vnqSVPfwARDzqrzQBr7-102" style="edgeStyle=orthogonalEdgeStyle;rounded=0;orthogonalLoop=1;jettySize=auto;html=1;exitX=0.5;exitY=1;exitDx=0;exitDy=0;entryX=0.5;entryY=0;entryDx=0;entryDy=0;" parent="1" source="0vnqSVPfwARDzqrzQBr7-68" target="0vnqSVPfwARDzqrzQBr7-101" edge="1">
          <mxGeometry relative="1" as="geometry">
            <mxPoint x="2279.9999999999995" y="558" as="sourcePoint" />
          </mxGeometry>
        </mxCell>
        <mxCell id="0vnqSVPfwARDzqrzQBr7-103" value="signed&lt;br&gt;object&lt;br&gt;metadata" style="shape=note;whiteSpace=wrap;html=1;backgroundOutline=1;darkOpacity=0.05;size=26;" parent="1" vertex="1">
          <mxGeometry x="2380.5" y="605.5" width="79.5" height="100" as="geometry" />
        </mxCell>
        <mxCell id="0vnqSVPfwARDzqrzQBr7-104" style="edgeStyle=orthogonalEdgeStyle;rounded=0;orthogonalLoop=1;jettySize=auto;html=1;entryX=0;entryY=0.75;entryDx=0;entryDy=0;strokeColor=#FF8000;" parent="1" source="0vnqSVPfwARDzqrzQBr7-103" target="0vnqSVPfwARDzqrzQBr7-84" edge="1">
          <mxGeometry relative="1" as="geometry">
            <mxPoint x="2520" y="590" as="targetPoint" />
            <Array as="points">
              <mxPoint x="2500" y="656" />
              <mxPoint x="2500" y="830" />
            </Array>
          </mxGeometry>
        </mxCell>
      </root>
    </mxGraphModel>
  </diagram>
  <diagram name="by system" id="6b-AkM0e5Dg9Z0XeQFtc">
    <mxGraphModel dx="3238" dy="748" grid="1" gridSize="10" guides="1" tooltips="1" connect="1" arrows="1" fold="1" page="0" pageScale="1" pageWidth="850" pageHeight="1100" math="0" shadow="0">
      <root>
        <mxCell id="JY0LWmSgq47vOCYnlXfx-0" />
        <mxCell id="JY0LWmSgq47vOCYnlXfx-1" parent="JY0LWmSgq47vOCYnlXfx-0" />
        <mxCell id="JY0LWmSgq47vOCYnlXfx-2" value="" style="rounded=1;whiteSpace=wrap;html=1;arcSize=2;fillColor=none;strokeColor=#0000FF;strokeWidth=3;" vertex="1" parent="JY0LWmSgq47vOCYnlXfx-1">
          <mxGeometry x="2820" y="1480" width="680" height="1160" as="geometry" />
        </mxCell>
        <mxCell id="JY0LWmSgq47vOCYnlXfx-3" value="" style="rounded=1;whiteSpace=wrap;html=1;arcSize=3;fillColor=none;strokeColor=#0000FF;strokeWidth=3;" vertex="1" parent="JY0LWmSgq47vOCYnlXfx-1">
          <mxGeometry x="30" y="1480" width="480" height="1160" as="geometry" />
        </mxCell>
        <mxCell id="JY0LWmSgq47vOCYnlXfx-4" value="&lt;b&gt;&lt;font style=&quot;font-size: 20px;&quot;&gt;build system&lt;/font&gt;&lt;/b&gt;" style="text;html=1;strokeColor=none;fillColor=none;align=center;verticalAlign=middle;whiteSpace=wrap;rounded=0;" vertex="1" parent="JY0LWmSgq47vOCYnlXfx-1">
          <mxGeometry x="30" y="1500" width="480" height="20" as="geometry" />
        </mxCell>
        <mxCell id="JY0LWmSgq47vOCYnlXfx-5" value="" style="rounded=1;whiteSpace=wrap;html=1;arcSize=2;fillColor=none;strokeColor=#0000FF;strokeWidth=3;" vertex="1" parent="JY0LWmSgq47vOCYnlXfx-1">
          <mxGeometry x="530" y="1480" width="2270" height="1160" as="geometry" />
        </mxCell>
        <mxCell id="JY0LWmSgq47vOCYnlXfx-6" value="&lt;b&gt;&lt;font style=&quot;font-size: 20px;&quot;&gt;code signing server&lt;/font&gt;&lt;/b&gt;" style="text;html=1;strokeColor=none;fillColor=none;align=center;verticalAlign=middle;whiteSpace=wrap;rounded=0;" vertex="1" parent="JY0LWmSgq47vOCYnlXfx-1">
          <mxGeometry x="530" y="1500" width="2270" height="20" as="geometry" />
        </mxCell>
        <mxCell id="JY0LWmSgq47vOCYnlXfx-7" value="&lt;b&gt;&lt;font style=&quot;font-size: 20px;&quot;&gt;build system&lt;/font&gt;&lt;/b&gt;" style="text;html=1;strokeColor=none;fillColor=none;align=center;verticalAlign=middle;whiteSpace=wrap;rounded=0;" vertex="1" parent="JY0LWmSgq47vOCYnlXfx-1">
          <mxGeometry x="2820" y="1500" width="680" height="20" as="geometry" />
        </mxCell>
        <mxCell id="JY0LWmSgq47vOCYnlXfx-8" value="" style="rounded=0;whiteSpace=wrap;html=1;strokeColor=none;fillColor=#D5E8D4;" vertex="1" parent="JY0LWmSgq47vOCYnlXfx-1">
          <mxGeometry x="3170" y="1566" width="310" height="530" as="geometry" />
        </mxCell>
        <mxCell id="JY0LWmSgq47vOCYnlXfx-9" value="" style="rounded=0;whiteSpace=wrap;html=1;strokeColor=none;fillColor=#D4E1F5;" vertex="1" parent="JY0LWmSgq47vOCYnlXfx-1">
          <mxGeometry x="3170" y="2096" width="310" height="530" as="geometry" />
        </mxCell>
        <mxCell id="JY0LWmSgq47vOCYnlXfx-10" value="" style="rounded=0;whiteSpace=wrap;html=1;strokeColor=none;fillColor=#F9F7ED;" vertex="1" parent="JY0LWmSgq47vOCYnlXfx-1">
          <mxGeometry x="2840" y="1806" width="330" height="530" as="geometry" />
        </mxCell>
        <mxCell id="JY0LWmSgq47vOCYnlXfx-11" value="" style="rounded=0;whiteSpace=wrap;html=1;strokeColor=none;fillColor=#FFE6CC;" vertex="1" parent="JY0LWmSgq47vOCYnlXfx-1">
          <mxGeometry x="2490.64" y="2040.5" width="290" height="530" as="geometry" />
        </mxCell>
        <mxCell id="JY0LWmSgq47vOCYnlXfx-12" value="" style="rounded=0;whiteSpace=wrap;html=1;strokeColor=none;fillColor=#D5E8D4;" vertex="1" parent="JY0LWmSgq47vOCYnlXfx-1">
          <mxGeometry x="2080.64" y="1693" width="409.36" height="530" as="geometry" />
        </mxCell>
        <mxCell id="JY0LWmSgq47vOCYnlXfx-13" value="" style="rounded=0;whiteSpace=wrap;html=1;strokeColor=none;fillColor=#D4E1F5;" vertex="1" parent="JY0LWmSgq47vOCYnlXfx-1">
          <mxGeometry x="2490" y="1510" width="290" height="530" as="geometry" />
        </mxCell>
        <mxCell id="JY0LWmSgq47vOCYnlXfx-14" value="" style="rounded=0;whiteSpace=wrap;html=1;strokeColor=none;fillColor=#F9F7ED;" vertex="1" parent="JY0LWmSgq47vOCYnlXfx-1">
          <mxGeometry x="50" y="1784" width="440" height="530" as="geometry" />
        </mxCell>
        <mxCell id="JY0LWmSgq47vOCYnlXfx-15" value="" style="rounded=0;whiteSpace=wrap;html=1;strokeColor=none;fillColor=#D5E8D4;" vertex="1" parent="JY0LWmSgq47vOCYnlXfx-1">
          <mxGeometry x="550" y="1784" width="370" height="530" as="geometry" />
        </mxCell>
        <mxCell id="JY0LWmSgq47vOCYnlXfx-16" style="edgeStyle=orthogonalEdgeStyle;rounded=0;orthogonalLoop=1;jettySize=auto;html=1;exitX=1;exitY=0.5;exitDx=0;exitDy=0;entryX=0;entryY=0.5;entryDx=0;entryDy=0;entryPerimeter=0;" edge="1" parent="JY0LWmSgq47vOCYnlXfx-1" source="JY0LWmSgq47vOCYnlXfx-18" target="JY0LWmSgq47vOCYnlXfx-20">
          <mxGeometry relative="1" as="geometry" />
        </mxCell>
        <mxCell id="JY0LWmSgq47vOCYnlXfx-17" style="edgeStyle=orthogonalEdgeStyle;rounded=0;orthogonalLoop=1;jettySize=auto;html=1;exitX=0.25;exitY=1;exitDx=0;exitDy=0;entryX=1;entryY=0.5;entryDx=0;entryDy=0;dashed=1;" edge="1" parent="JY0LWmSgq47vOCYnlXfx-1" source="JY0LWmSgq47vOCYnlXfx-18" target="JY0LWmSgq47vOCYnlXfx-21">
          <mxGeometry relative="1" as="geometry" />
        </mxCell>
        <mxCell id="JY0LWmSgq47vOCYnlXfx-18" value="submission ingest" style="shape=process;whiteSpace=wrap;html=1;backgroundOutline=1;" vertex="1" parent="JY0LWmSgq47vOCYnlXfx-1">
          <mxGeometry x="650" y="2039" width="120" height="60" as="geometry" />
        </mxCell>
        <mxCell id="JY0LWmSgq47vOCYnlXfx-19" value="submission ingest" style="text;html=1;align=center;verticalAlign=middle;resizable=0;points=[];autosize=1;" vertex="1" parent="JY0LWmSgq47vOCYnlXfx-1">
          <mxGeometry x="675" y="2294" width="110" height="20" as="geometry" />
        </mxCell>
        <mxCell id="JY0LWmSgq47vOCYnlXfx-20" value="signing submission&lt;br&gt;(pre-auth)" style="shape=note;whiteSpace=wrap;html=1;backgroundOutline=1;darkOpacity=0.05;size=19;" vertex="1" parent="JY0LWmSgq47vOCYnlXfx-1">
          <mxGeometry x="810" y="2019" width="80" height="100" as="geometry" />
        </mxCell>
        <mxCell id="JY0LWmSgq47vOCYnlXfx-21" value="submission rejected" style="text;html=1;strokeColor=none;fillColor=none;align=center;verticalAlign=middle;whiteSpace=wrap;rounded=0;" vertex="1" parent="JY0LWmSgq47vOCYnlXfx-1">
          <mxGeometry x="550" y="2126.5" width="80" height="40" as="geometry" />
        </mxCell>
        <mxCell id="JY0LWmSgq47vOCYnlXfx-22" style="edgeStyle=orthogonalEdgeStyle;rounded=0;orthogonalLoop=1;jettySize=auto;html=1;exitX=1;exitY=0.5;exitDx=0;exitDy=0;entryX=0;entryY=0.5;entryDx=0;entryDy=0;entryPerimeter=0;" edge="1" parent="JY0LWmSgq47vOCYnlXfx-1" source="JY0LWmSgq47vOCYnlXfx-23" target="JY0LWmSgq47vOCYnlXfx-27">
          <mxGeometry relative="1" as="geometry" />
        </mxCell>
        <mxCell id="JY0LWmSgq47vOCYnlXfx-23" value="create signing submission" style="shape=process;whiteSpace=wrap;html=1;backgroundOutline=1;" vertex="1" parent="JY0LWmSgq47vOCYnlXfx-1">
          <mxGeometry x="210" y="2039" width="120" height="60" as="geometry" />
        </mxCell>
        <mxCell id="JY0LWmSgq47vOCYnlXfx-24" value="create signing submission" style="text;html=1;align=center;verticalAlign=middle;resizable=0;points=[];autosize=1;" vertex="1" parent="JY0LWmSgq47vOCYnlXfx-1">
          <mxGeometry x="195" y="2294" width="150" height="20" as="geometry" />
        </mxCell>
        <mxCell id="JY0LWmSgq47vOCYnlXfx-25" style="edgeStyle=orthogonalEdgeStyle;rounded=0;orthogonalLoop=1;jettySize=auto;html=1;entryX=0;entryY=0.25;entryDx=0;entryDy=0;strokeColor=#FF8000;" edge="1" parent="JY0LWmSgq47vOCYnlXfx-1" source="JY0LWmSgq47vOCYnlXfx-26" target="JY0LWmSgq47vOCYnlXfx-23">
          <mxGeometry relative="1" as="geometry" />
        </mxCell>
        <mxCell id="JY0LWmSgq47vOCYnlXfx-26" value="unsigned object" style="shape=note;whiteSpace=wrap;html=1;backgroundOutline=1;darkOpacity=0.05;size=26;" vertex="1" parent="JY0LWmSgq47vOCYnlXfx-1">
          <mxGeometry x="70" y="1938" width="79.5" height="100" as="geometry" />
        </mxCell>
        <mxCell id="JY0LWmSgq47vOCYnlXfx-27" value="signing submission" style="shape=note;whiteSpace=wrap;html=1;backgroundOutline=1;darkOpacity=0.05;size=26;" vertex="1" parent="JY0LWmSgq47vOCYnlXfx-1">
          <mxGeometry x="380" y="2019" width="80" height="100" as="geometry" />
        </mxCell>
        <mxCell id="JY0LWmSgq47vOCYnlXfx-28" style="edgeStyle=orthogonalEdgeStyle;rounded=0;orthogonalLoop=1;jettySize=auto;html=1;dashed=1;strokeColor=#0000FF;entryX=0.5;entryY=0;entryDx=0;entryDy=0;" edge="1" parent="JY0LWmSgq47vOCYnlXfx-1" source="JY0LWmSgq47vOCYnlXfx-29" target="JY0LWmSgq47vOCYnlXfx-23">
          <mxGeometry relative="1" as="geometry">
            <Array as="points">
              <mxPoint x="270" y="1960" />
              <mxPoint x="270" y="1960" />
            </Array>
          </mxGeometry>
        </mxCell>
        <mxCell id="JY0LWmSgq47vOCYnlXfx-29" value="&lt;span style=&quot;background-color: rgb(249 , 247 , 237)&quot;&gt;Developer&lt;/span&gt;" style="shape=umlActor;verticalLabelPosition=bottom;verticalAlign=top;html=1;outlineConnect=0;fillColor=none;" vertex="1" parent="JY0LWmSgq47vOCYnlXfx-1">
          <mxGeometry x="255" y="1810.5" width="30" height="60" as="geometry" />
        </mxCell>
        <mxCell id="JY0LWmSgq47vOCYnlXfx-30" style="edgeStyle=orthogonalEdgeStyle;rounded=0;orthogonalLoop=1;jettySize=auto;html=1;strokeColor=#FF8000;exitX=1.013;exitY=0.5;exitDx=0;exitDy=0;exitPerimeter=0;entryX=0;entryY=0.5;entryDx=0;entryDy=0;" edge="1" parent="JY0LWmSgq47vOCYnlXfx-1" source="JY0LWmSgq47vOCYnlXfx-27" target="JY0LWmSgq47vOCYnlXfx-18">
          <mxGeometry relative="1" as="geometry">
            <mxPoint x="80" y="2344" as="sourcePoint" />
            <mxPoint x="89" y="1630" as="targetPoint" />
            <Array as="points" />
          </mxGeometry>
        </mxCell>
        <mxCell id="JY0LWmSgq47vOCYnlXfx-31" value="signed&lt;br&gt;object / hash datastore" style="shape=cylinder3;whiteSpace=wrap;html=1;boundedLbl=1;backgroundOutline=1;size=15;" vertex="1" parent="JY0LWmSgq47vOCYnlXfx-1">
          <mxGeometry x="3369.68" y="1801.5" width="80" height="100" as="geometry" />
        </mxCell>
        <mxCell id="JY0LWmSgq47vOCYnlXfx-32" value="CV - PV cross-reference&lt;br&gt;database" style="shape=cylinder3;whiteSpace=wrap;html=1;boundedLbl=1;backgroundOutline=1;size=15;" vertex="1" parent="JY0LWmSgq47vOCYnlXfx-1">
          <mxGeometry x="3369.6800000000003" y="2331.5" width="80" height="99" as="geometry" />
        </mxCell>
        <mxCell id="JY0LWmSgq47vOCYnlXfx-33" value="" style="rounded=0;whiteSpace=wrap;html=1;strokeColor=none;fillColor=#D4E1F5;" vertex="1" parent="JY0LWmSgq47vOCYnlXfx-1">
          <mxGeometry x="920" y="1784" width="440" height="530" as="geometry" />
        </mxCell>
        <mxCell id="JY0LWmSgq47vOCYnlXfx-34" value="" style="rounded=0;whiteSpace=wrap;html=1;strokeColor=none;fillColor=#FFE6CC;" vertex="1" parent="JY0LWmSgq47vOCYnlXfx-1">
          <mxGeometry x="1360" y="1693" width="360" height="530" as="geometry" />
        </mxCell>
        <mxCell id="JY0LWmSgq47vOCYnlXfx-35" style="edgeStyle=orthogonalEdgeStyle;rounded=0;orthogonalLoop=1;jettySize=auto;html=1;exitX=0.25;exitY=1;exitDx=0;exitDy=0;dashed=1;entryX=1.011;entryY=0.55;entryDx=0;entryDy=0;entryPerimeter=0;" edge="1" parent="JY0LWmSgq47vOCYnlXfx-1" source="JY0LWmSgq47vOCYnlXfx-43" target="JY0LWmSgq47vOCYnlXfx-45">
          <mxGeometry relative="1" as="geometry">
            <mxPoint x="1406" y="2053" as="targetPoint" />
            <Array as="points">
              <mxPoint x="1480" y="2057" />
            </Array>
          </mxGeometry>
        </mxCell>
        <mxCell id="JY0LWmSgq47vOCYnlXfx-36" style="edgeStyle=orthogonalEdgeStyle;rounded=0;orthogonalLoop=1;jettySize=auto;html=1;exitX=1;exitY=0.25;exitDx=0;exitDy=0;entryX=0;entryY=0.5;entryDx=0;entryDy=0;entryPerimeter=0;" edge="1" parent="JY0LWmSgq47vOCYnlXfx-1" source="JY0LWmSgq47vOCYnlXfx-38" target="JY0LWmSgq47vOCYnlXfx-48">
          <mxGeometry relative="1" as="geometry">
            <mxPoint x="1210" y="2069" as="targetPoint" />
          </mxGeometry>
        </mxCell>
        <mxCell id="JY0LWmSgq47vOCYnlXfx-37" style="edgeStyle=orthogonalEdgeStyle;rounded=0;orthogonalLoop=1;jettySize=auto;html=1;exitX=1;exitY=0.75;exitDx=0;exitDy=0;entryX=0;entryY=0.5;entryDx=0;entryDy=0;entryPerimeter=0;dashed=1;" edge="1" parent="JY0LWmSgq47vOCYnlXfx-1" source="JY0LWmSgq47vOCYnlXfx-38" target="JY0LWmSgq47vOCYnlXfx-59">
          <mxGeometry relative="1" as="geometry" />
        </mxCell>
        <mxCell id="JY0LWmSgq47vOCYnlXfx-38" value="unwrap submission" style="shape=process;whiteSpace=wrap;html=1;backgroundOutline=1;" vertex="1" parent="JY0LWmSgq47vOCYnlXfx-1">
          <mxGeometry x="1075" y="2024.5" width="120" height="60" as="geometry" />
        </mxCell>
        <mxCell id="JY0LWmSgq47vOCYnlXfx-39" value="unwrap submission" style="text;html=1;align=center;verticalAlign=middle;resizable=0;points=[];autosize=1;" vertex="1" parent="JY0LWmSgq47vOCYnlXfx-1">
          <mxGeometry x="1075" y="2294" width="120" height="20" as="geometry" />
        </mxCell>
        <mxCell id="JY0LWmSgq47vOCYnlXfx-40" value="single-scan unsigned object" style="shape=note;whiteSpace=wrap;html=1;backgroundOutline=1;darkOpacity=0.05;size=31;" vertex="1" parent="JY0LWmSgq47vOCYnlXfx-1">
          <mxGeometry x="1620" y="1928" width="80" height="100" as="geometry" />
        </mxCell>
        <mxCell id="JY0LWmSgq47vOCYnlXfx-41" style="edgeStyle=orthogonalEdgeStyle;rounded=0;orthogonalLoop=1;jettySize=auto;html=1;exitX=1;exitY=0.5;exitDx=0;exitDy=0;entryX=0;entryY=0.5;entryDx=0;entryDy=0;entryPerimeter=0;" edge="1" parent="JY0LWmSgq47vOCYnlXfx-1" source="JY0LWmSgq47vOCYnlXfx-43" target="JY0LWmSgq47vOCYnlXfx-40">
          <mxGeometry relative="1" as="geometry" />
        </mxCell>
        <mxCell id="JY0LWmSgq47vOCYnlXfx-42" style="edgeStyle=orthogonalEdgeStyle;rounded=0;orthogonalLoop=1;jettySize=auto;html=1;exitX=0.5;exitY=1;exitDx=0;exitDy=0;entryX=0.5;entryY=0;entryDx=0;entryDy=0;" edge="1" parent="JY0LWmSgq47vOCYnlXfx-1" source="JY0LWmSgq47vOCYnlXfx-43" target="JY0LWmSgq47vOCYnlXfx-46">
          <mxGeometry relative="1" as="geometry" />
        </mxCell>
        <mxCell id="JY0LWmSgq47vOCYnlXfx-43" value="virus scan 1" style="shape=process;whiteSpace=wrap;html=1;backgroundOutline=1;" vertex="1" parent="JY0LWmSgq47vOCYnlXfx-1">
          <mxGeometry x="1450" y="1948" width="120" height="60" as="geometry" />
        </mxCell>
        <mxCell id="JY0LWmSgq47vOCYnlXfx-44" value="virus scan 1" style="text;html=1;strokeColor=none;fillColor=none;align=center;verticalAlign=middle;whiteSpace=wrap;rounded=0;" vertex="1" parent="JY0LWmSgq47vOCYnlXfx-1">
          <mxGeometry x="1360" y="2203" width="360" height="20" as="geometry" />
        </mxCell>
        <mxCell id="JY0LWmSgq47vOCYnlXfx-45" value="AV scan&lt;br&gt;failed" style="text;html=1;align=center;verticalAlign=middle;resizable=0;points=[];autosize=1;" vertex="1" parent="JY0LWmSgq47vOCYnlXfx-1">
          <mxGeometry x="1360" y="2040.5" width="60" height="30" as="geometry" />
        </mxCell>
        <mxCell id="JY0LWmSgq47vOCYnlXfx-46" value="virus scan 1 report&amp;nbsp;" style="shape=document;whiteSpace=wrap;html=1;boundedLbl=1;" vertex="1" parent="JY0LWmSgq47vOCYnlXfx-1">
          <mxGeometry x="1450" y="2087" width="120" height="80" as="geometry" />
        </mxCell>
        <mxCell id="JY0LWmSgq47vOCYnlXfx-47" style="edgeStyle=orthogonalEdgeStyle;rounded=0;orthogonalLoop=1;jettySize=auto;html=1;strokeColor=#FF8000;exitX=0.992;exitY=0.525;exitDx=0;exitDy=0;exitPerimeter=0;entryX=0;entryY=0.5;entryDx=0;entryDy=0;" edge="1" parent="JY0LWmSgq47vOCYnlXfx-1" source="JY0LWmSgq47vOCYnlXfx-48" target="JY0LWmSgq47vOCYnlXfx-43">
          <mxGeometry relative="1" as="geometry">
            <Array as="points">
              <mxPoint x="1450" y="1978" />
            </Array>
            <mxPoint x="1460" y="2520" as="targetPoint" />
          </mxGeometry>
        </mxCell>
        <mxCell id="JY0LWmSgq47vOCYnlXfx-48" value="unsigned object" style="shape=note;whiteSpace=wrap;html=1;backgroundOutline=1;darkOpacity=0.05;size=31;" vertex="1" parent="JY0LWmSgq47vOCYnlXfx-1">
          <mxGeometry x="1240" y="1924.5" width="80" height="100" as="geometry" />
        </mxCell>
        <mxCell id="JY0LWmSgq47vOCYnlXfx-49" value="unsigned object&lt;br&gt;metadata" style="shape=note;whiteSpace=wrap;html=1;backgroundOutline=1;darkOpacity=0.05;size=26;dashed=1;" vertex="1" parent="JY0LWmSgq47vOCYnlXfx-1">
          <mxGeometry x="70" y="2098" width="79.5" height="100" as="geometry" />
        </mxCell>
        <mxCell id="JY0LWmSgq47vOCYnlXfx-50" style="edgeStyle=orthogonalEdgeStyle;rounded=0;orthogonalLoop=1;jettySize=auto;html=1;entryX=0;entryY=0.75;entryDx=0;entryDy=0;strokeColor=#FF8000;dashed=1;" edge="1" parent="JY0LWmSgq47vOCYnlXfx-1" source="JY0LWmSgq47vOCYnlXfx-49" target="JY0LWmSgq47vOCYnlXfx-23">
          <mxGeometry relative="1" as="geometry">
            <mxPoint x="217.25" y="2208" as="targetPoint" />
          </mxGeometry>
        </mxCell>
        <mxCell id="JY0LWmSgq47vOCYnlXfx-51" style="edgeStyle=orthogonalEdgeStyle;rounded=0;orthogonalLoop=1;jettySize=auto;html=1;exitX=0.75;exitY=1;exitDx=0;exitDy=0;entryX=0;entryY=0.5;entryDx=0;entryDy=0;dashed=1;" edge="1" parent="JY0LWmSgq47vOCYnlXfx-1" source="JY0LWmSgq47vOCYnlXfx-18" target="JY0LWmSgq47vOCYnlXfx-52">
          <mxGeometry relative="1" as="geometry">
            <mxPoint x="920" y="2086.5" as="sourcePoint" />
          </mxGeometry>
        </mxCell>
        <mxCell id="JY0LWmSgq47vOCYnlXfx-52" value="authorization required" style="text;html=1;strokeColor=none;fillColor=none;align=center;verticalAlign=middle;whiteSpace=wrap;rounded=0;" vertex="1" parent="JY0LWmSgq47vOCYnlXfx-1">
          <mxGeometry x="785" y="2126.5" width="80" height="40" as="geometry" />
        </mxCell>
        <mxCell id="JY0LWmSgq47vOCYnlXfx-53" value="authorization rejected" style="text;html=1;strokeColor=none;fillColor=none;align=center;verticalAlign=middle;whiteSpace=wrap;rounded=0;" vertex="1" parent="JY0LWmSgq47vOCYnlXfx-1">
          <mxGeometry x="949.36" y="2114.5" width="80" height="40" as="geometry" />
        </mxCell>
        <mxCell id="JY0LWmSgq47vOCYnlXfx-54" style="edgeStyle=orthogonalEdgeStyle;rounded=0;orthogonalLoop=1;jettySize=auto;html=1;exitX=0.25;exitY=1;exitDx=0;exitDy=0;entryX=1;entryY=0.5;entryDx=0;entryDy=0;dashed=1;" edge="1" parent="JY0LWmSgq47vOCYnlXfx-1" source="JY0LWmSgq47vOCYnlXfx-38" target="JY0LWmSgq47vOCYnlXfx-53">
          <mxGeometry relative="1" as="geometry">
            <mxPoint x="1050" y="2099" as="sourcePoint" />
          </mxGeometry>
        </mxCell>
        <mxCell id="JY0LWmSgq47vOCYnlXfx-55" style="edgeStyle=orthogonalEdgeStyle;rounded=0;orthogonalLoop=1;jettySize=auto;html=1;strokeColor=#FF8000;entryX=0;entryY=0.75;entryDx=0;entryDy=0;exitX=1.004;exitY=0.5;exitDx=0;exitDy=0;exitPerimeter=0;" edge="1" parent="JY0LWmSgq47vOCYnlXfx-1" source="JY0LWmSgq47vOCYnlXfx-20" target="JY0LWmSgq47vOCYnlXfx-38">
          <mxGeometry relative="1" as="geometry">
            <mxPoint x="890" y="2069" as="sourcePoint" />
            <mxPoint x="660" y="2079" as="targetPoint" />
            <Array as="points" />
          </mxGeometry>
        </mxCell>
        <mxCell id="JY0LWmSgq47vOCYnlXfx-56" value="authorization response" style="shape=note;whiteSpace=wrap;html=1;backgroundOutline=1;darkOpacity=0.05;size=31;dashed=1;" vertex="1" parent="JY0LWmSgq47vOCYnlXfx-1">
          <mxGeometry x="940" y="1924.5" width="80" height="100" as="geometry" />
        </mxCell>
        <mxCell id="JY0LWmSgq47vOCYnlXfx-57" style="edgeStyle=orthogonalEdgeStyle;rounded=0;orthogonalLoop=1;jettySize=auto;html=1;entryX=0;entryY=0.25;entryDx=0;entryDy=0;strokeColor=#FF8000;exitX=0;exitY=0;exitDx=80;exitDy=65.5;exitPerimeter=0;dashed=1;" edge="1" parent="JY0LWmSgq47vOCYnlXfx-1" source="JY0LWmSgq47vOCYnlXfx-56" target="JY0LWmSgq47vOCYnlXfx-38">
          <mxGeometry relative="1" as="geometry">
            <Array as="points">
              <mxPoint x="1040" y="1990" />
              <mxPoint x="1040" y="2040" />
            </Array>
            <mxPoint x="1200" y="1961" as="targetPoint" />
          </mxGeometry>
        </mxCell>
        <mxCell id="JY0LWmSgq47vOCYnlXfx-58" style="edgeStyle=orthogonalEdgeStyle;rounded=0;orthogonalLoop=1;jettySize=auto;html=1;entryX=0;entryY=0.75;entryDx=0;entryDy=0;strokeColor=#FF8000;dashed=1;" edge="1" parent="JY0LWmSgq47vOCYnlXfx-1" source="JY0LWmSgq47vOCYnlXfx-59" target="JY0LWmSgq47vOCYnlXfx-75">
          <mxGeometry relative="1" as="geometry">
            <Array as="points">
              <mxPoint x="1340" y="2135" />
              <mxPoint x="1340" y="2240" />
              <mxPoint x="2110" y="2240" />
              <mxPoint x="2110" y="1993" />
            </Array>
          </mxGeometry>
        </mxCell>
        <mxCell id="JY0LWmSgq47vOCYnlXfx-59" value="object metadata" style="shape=note;whiteSpace=wrap;html=1;backgroundOutline=1;darkOpacity=0.05;size=31;dashed=1;" vertex="1" parent="JY0LWmSgq47vOCYnlXfx-1">
          <mxGeometry x="1240" y="2084.5" width="80" height="100" as="geometry" />
        </mxCell>
        <mxCell id="JY0LWmSgq47vOCYnlXfx-60" value="" style="rounded=0;whiteSpace=wrap;html=1;strokeColor=none;fillColor=#F9F7ED;" vertex="1" parent="JY0LWmSgq47vOCYnlXfx-1">
          <mxGeometry x="1720" y="1693" width="360" height="530" as="geometry" />
        </mxCell>
        <mxCell id="JY0LWmSgq47vOCYnlXfx-61" value="virus scan 2" style="shape=process;whiteSpace=wrap;html=1;backgroundOutline=1;" vertex="1" parent="JY0LWmSgq47vOCYnlXfx-1">
          <mxGeometry x="1810.6399999999999" y="1948" width="120" height="60" as="geometry" />
        </mxCell>
        <mxCell id="JY0LWmSgq47vOCYnlXfx-62" style="edgeStyle=orthogonalEdgeStyle;rounded=0;orthogonalLoop=1;jettySize=auto;html=1;exitX=0.25;exitY=1;exitDx=0;exitDy=0;dashed=1;entryX=1.011;entryY=0.55;entryDx=0;entryDy=0;entryPerimeter=0;" edge="1" parent="JY0LWmSgq47vOCYnlXfx-1" source="JY0LWmSgq47vOCYnlXfx-61">
          <mxGeometry relative="1" as="geometry">
            <mxPoint x="1781.2999999999997" y="2058" as="targetPoint" />
            <Array as="points">
              <mxPoint x="1840.6399999999999" y="2058" />
            </Array>
          </mxGeometry>
        </mxCell>
        <mxCell id="JY0LWmSgq47vOCYnlXfx-63" value="AV scan&lt;br&gt;failed" style="text;html=1;align=center;verticalAlign=middle;resizable=0;points=[];autosize=1;" vertex="1" parent="JY0LWmSgq47vOCYnlXfx-1">
          <mxGeometry x="1720.6399999999999" y="2040.5" width="60" height="30" as="geometry" />
        </mxCell>
        <mxCell id="JY0LWmSgq47vOCYnlXfx-64" value="virus scan 2 report&amp;nbsp;" style="shape=document;whiteSpace=wrap;html=1;boundedLbl=1;" vertex="1" parent="JY0LWmSgq47vOCYnlXfx-1">
          <mxGeometry x="1810.6399999999999" y="2087" width="120" height="80" as="geometry" />
        </mxCell>
        <mxCell id="JY0LWmSgq47vOCYnlXfx-65" style="edgeStyle=orthogonalEdgeStyle;rounded=0;orthogonalLoop=1;jettySize=auto;html=1;exitX=0.5;exitY=1;exitDx=0;exitDy=0;entryX=0.5;entryY=0;entryDx=0;entryDy=0;" edge="1" parent="JY0LWmSgq47vOCYnlXfx-1" source="JY0LWmSgq47vOCYnlXfx-61" target="JY0LWmSgq47vOCYnlXfx-64">
          <mxGeometry relative="1" as="geometry" />
        </mxCell>
        <mxCell id="JY0LWmSgq47vOCYnlXfx-66" style="edgeStyle=orthogonalEdgeStyle;rounded=0;orthogonalLoop=1;jettySize=auto;html=1;exitX=1;exitY=0.5;exitDx=0;exitDy=0;entryX=0;entryY=0.5;entryDx=0;entryDy=0;entryPerimeter=0;" edge="1" parent="JY0LWmSgq47vOCYnlXfx-1" source="JY0LWmSgq47vOCYnlXfx-61" target="JY0LWmSgq47vOCYnlXfx-68">
          <mxGeometry relative="1" as="geometry" />
        </mxCell>
        <mxCell id="JY0LWmSgq47vOCYnlXfx-67" style="edgeStyle=orthogonalEdgeStyle;rounded=0;orthogonalLoop=1;jettySize=auto;html=1;entryX=0;entryY=0.5;entryDx=0;entryDy=0;" edge="1" parent="JY0LWmSgq47vOCYnlXfx-1" source="JY0LWmSgq47vOCYnlXfx-68" target="JY0LWmSgq47vOCYnlXfx-75">
          <mxGeometry relative="1" as="geometry" />
        </mxCell>
        <mxCell id="JY0LWmSgq47vOCYnlXfx-68" value="dual-scan unsigned object" style="shape=note;whiteSpace=wrap;html=1;backgroundOutline=1;darkOpacity=0.05;size=31;" vertex="1" parent="JY0LWmSgq47vOCYnlXfx-1">
          <mxGeometry x="1980.6399999999999" y="1928" width="80" height="100" as="geometry" />
        </mxCell>
        <mxCell id="JY0LWmSgq47vOCYnlXfx-69" style="edgeStyle=orthogonalEdgeStyle;rounded=0;orthogonalLoop=1;jettySize=auto;html=1;strokeColor=#FF8000;entryX=0;entryY=0.5;entryDx=0;entryDy=0;exitX=0.995;exitY=0.502;exitDx=0;exitDy=0;exitPerimeter=0;" edge="1" parent="JY0LWmSgq47vOCYnlXfx-1" source="JY0LWmSgq47vOCYnlXfx-40" target="JY0LWmSgq47vOCYnlXfx-61">
          <mxGeometry relative="1" as="geometry">
            <Array as="points">
              <mxPoint x="1780" y="1978" />
              <mxPoint x="1780" y="1978" />
            </Array>
            <mxPoint x="1700" y="1978" as="sourcePoint" />
            <mxPoint x="1820.6399999999999" y="2520" as="targetPoint" />
          </mxGeometry>
        </mxCell>
        <mxCell id="JY0LWmSgq47vOCYnlXfx-70" value="virus scan 2" style="text;html=1;strokeColor=none;fillColor=none;align=center;verticalAlign=middle;whiteSpace=wrap;rounded=0;" vertex="1" parent="JY0LWmSgq47vOCYnlXfx-1">
          <mxGeometry x="1720.6399999999999" y="2203" width="360" height="20" as="geometry" />
        </mxCell>
        <mxCell id="JY0LWmSgq47vOCYnlXfx-71" style="edgeStyle=orthogonalEdgeStyle;rounded=0;orthogonalLoop=1;jettySize=auto;html=1;exitX=1;exitY=0.5;exitDx=0;exitDy=0;entryX=0;entryY=0.5;entryDx=0;entryDy=0;entryPerimeter=0;" edge="1" parent="JY0LWmSgq47vOCYnlXfx-1" source="JY0LWmSgq47vOCYnlXfx-75" target="JY0LWmSgq47vOCYnlXfx-78">
          <mxGeometry relative="1" as="geometry" />
        </mxCell>
        <mxCell id="JY0LWmSgq47vOCYnlXfx-72" style="edgeStyle=orthogonalEdgeStyle;rounded=0;orthogonalLoop=1;jettySize=auto;html=1;exitX=0.25;exitY=1;exitDx=0;exitDy=0;entryX=1;entryY=0.5;entryDx=0;entryDy=0;dashed=1;" edge="1" parent="JY0LWmSgq47vOCYnlXfx-1" source="JY0LWmSgq47vOCYnlXfx-75" target="JY0LWmSgq47vOCYnlXfx-79">
          <mxGeometry relative="1" as="geometry" />
        </mxCell>
        <mxCell id="JY0LWmSgq47vOCYnlXfx-73" style="edgeStyle=orthogonalEdgeStyle;rounded=0;orthogonalLoop=1;jettySize=auto;html=1;exitX=1;exitY=0.25;exitDx=0;exitDy=0;entryX=0;entryY=0.5;entryDx=0;entryDy=0;entryPerimeter=0;strokeColor=#000000;" edge="1" parent="JY0LWmSgq47vOCYnlXfx-1" source="JY0LWmSgq47vOCYnlXfx-75" target="JY0LWmSgq47vOCYnlXfx-86">
          <mxGeometry relative="1" as="geometry" />
        </mxCell>
        <mxCell id="JY0LWmSgq47vOCYnlXfx-74" style="edgeStyle=orthogonalEdgeStyle;rounded=0;orthogonalLoop=1;jettySize=auto;html=1;exitX=1;exitY=0.75;exitDx=0;exitDy=0;entryX=0;entryY=0.5;entryDx=0;entryDy=0;entryPerimeter=0;" edge="1" parent="JY0LWmSgq47vOCYnlXfx-1" source="JY0LWmSgq47vOCYnlXfx-75" target="JY0LWmSgq47vOCYnlXfx-158">
          <mxGeometry relative="1" as="geometry" />
        </mxCell>
        <mxCell id="JY0LWmSgq47vOCYnlXfx-75" value="sign object" style="shape=process;whiteSpace=wrap;html=1;backgroundOutline=1;" vertex="1" parent="JY0LWmSgq47vOCYnlXfx-1">
          <mxGeometry x="2220.0000000000005" y="1948" width="120" height="60" as="geometry" />
        </mxCell>
        <mxCell id="JY0LWmSgq47vOCYnlXfx-76" value="sign object" style="text;html=1;align=center;verticalAlign=middle;resizable=0;points=[];autosize=1;" vertex="1" parent="JY0LWmSgq47vOCYnlXfx-1">
          <mxGeometry x="2250.32" y="2203" width="70" height="20" as="geometry" />
        </mxCell>
        <mxCell id="JY0LWmSgq47vOCYnlXfx-77" style="edgeStyle=orthogonalEdgeStyle;rounded=0;orthogonalLoop=1;jettySize=auto;html=1;entryX=0;entryY=0.25;entryDx=0;entryDy=0;strokeColor=#FF8000;" edge="1" parent="JY0LWmSgq47vOCYnlXfx-1" source="JY0LWmSgq47vOCYnlXfx-78" target="JY0LWmSgq47vOCYnlXfx-91">
          <mxGeometry relative="1" as="geometry">
            <Array as="points">
              <mxPoint x="2480" y="1978" />
              <mxPoint x="2480" y="2076" />
              <mxPoint x="2510" y="2076" />
              <mxPoint x="2510" y="2311" />
            </Array>
          </mxGeometry>
        </mxCell>
        <mxCell id="JY0LWmSgq47vOCYnlXfx-78" value="signed&lt;br&gt;object" style="shape=note;whiteSpace=wrap;html=1;backgroundOutline=1;darkOpacity=0.05;size=19;" vertex="1" parent="JY0LWmSgq47vOCYnlXfx-1">
          <mxGeometry x="2380.0000000000005" y="1928" width="80" height="100" as="geometry" />
        </mxCell>
        <mxCell id="JY0LWmSgq47vOCYnlXfx-79" value="signing rejected" style="text;html=1;strokeColor=none;fillColor=none;align=center;verticalAlign=middle;whiteSpace=wrap;rounded=0;" vertex="1" parent="JY0LWmSgq47vOCYnlXfx-1">
          <mxGeometry x="2130" y="2035.5" width="59.36" height="40" as="geometry" />
        </mxCell>
        <mxCell id="JY0LWmSgq47vOCYnlXfx-80" style="edgeStyle=orthogonalEdgeStyle;rounded=0;orthogonalLoop=1;jettySize=auto;html=1;exitX=1;exitY=0.5;exitDx=0;exitDy=0;entryX=0;entryY=0.5;entryDx=0;entryDy=0;entryPerimeter=0;" edge="1" parent="JY0LWmSgq47vOCYnlXfx-1" source="JY0LWmSgq47vOCYnlXfx-81" target="JY0LWmSgq47vOCYnlXfx-87">
          <mxGeometry relative="1" as="geometry">
            <mxPoint x="2780.0000000000005" y="1795" as="targetPoint" />
          </mxGeometry>
        </mxCell>
        <mxCell id="JY0LWmSgq47vOCYnlXfx-81" value="archive&lt;br&gt;signed object" style="shape=process;whiteSpace=wrap;html=1;backgroundOutline=1;" vertex="1" parent="JY0LWmSgq47vOCYnlXfx-1">
          <mxGeometry x="2510.0000000000005" y="1765" width="120" height="60" as="geometry" />
        </mxCell>
        <mxCell id="JY0LWmSgq47vOCYnlXfx-82" value="archive signed object" style="text;html=1;align=center;verticalAlign=middle;resizable=0;points=[];autosize=1;" vertex="1" parent="JY0LWmSgq47vOCYnlXfx-1">
          <mxGeometry x="2570.0000000000005" y="2020" width="130" height="20" as="geometry" />
        </mxCell>
        <mxCell id="JY0LWmSgq47vOCYnlXfx-83" style="edgeStyle=orthogonalEdgeStyle;rounded=0;orthogonalLoop=1;jettySize=auto;html=1;strokeColor=#FF8000;entryX=0;entryY=0.5;entryDx=0;entryDy=0;exitX=0.999;exitY=0.503;exitDx=0;exitDy=0;exitPerimeter=0;" edge="1" parent="JY0LWmSgq47vOCYnlXfx-1" source="JY0LWmSgq47vOCYnlXfx-78" target="JY0LWmSgq47vOCYnlXfx-81">
          <mxGeometry relative="1" as="geometry">
            <mxPoint x="2420.6400000000003" y="1978" as="sourcePoint" />
            <mxPoint x="2190.6400000000003" y="1988" as="targetPoint" />
            <Array as="points">
              <mxPoint x="2480" y="1978" />
              <mxPoint x="2480" y="1795" />
            </Array>
          </mxGeometry>
        </mxCell>
        <mxCell id="JY0LWmSgq47vOCYnlXfx-84" style="edgeStyle=orthogonalEdgeStyle;rounded=0;orthogonalLoop=1;jettySize=auto;html=1;entryX=0;entryY=0.25;entryDx=0;entryDy=0;strokeColor=#FF8000;" edge="1" parent="JY0LWmSgq47vOCYnlXfx-1" source="JY0LWmSgq47vOCYnlXfx-85" target="JY0LWmSgq47vOCYnlXfx-75">
          <mxGeometry relative="1" as="geometry" />
        </mxCell>
        <mxCell id="JY0LWmSgq47vOCYnlXfx-85" value="signing&lt;br&gt;keys" style="shape=cylinder3;whiteSpace=wrap;html=1;boundedLbl=1;backgroundOutline=1;size=15;" vertex="1" parent="JY0LWmSgq47vOCYnlXfx-1">
          <mxGeometry x="2100" y="1848" width="80" height="100" as="geometry" />
        </mxCell>
        <mxCell id="JY0LWmSgq47vOCYnlXfx-86" value="signing log" style="shape=note;whiteSpace=wrap;html=1;backgroundOutline=1;darkOpacity=0.05;size=31;" vertex="1" parent="JY0LWmSgq47vOCYnlXfx-1">
          <mxGeometry x="2380.0000000000005" y="1800" width="80" height="100" as="geometry" />
        </mxCell>
        <mxCell id="JY0LWmSgq47vOCYnlXfx-87" value="signed&lt;br&gt;object&lt;br&gt;archive" style="shape=cylinder3;whiteSpace=wrap;html=1;boundedLbl=1;backgroundOutline=1;size=15;" vertex="1" parent="JY0LWmSgq47vOCYnlXfx-1">
          <mxGeometry x="2665" y="1745" width="80" height="100" as="geometry" />
        </mxCell>
        <mxCell id="JY0LWmSgq47vOCYnlXfx-88" style="edgeStyle=orthogonalEdgeStyle;rounded=0;orthogonalLoop=1;jettySize=auto;html=1;entryX=0;entryY=0.5;entryDx=0;entryDy=0;strokeColor=#FF8000;" edge="1" parent="JY0LWmSgq47vOCYnlXfx-1" source="JY0LWmSgq47vOCYnlXfx-89" target="JY0LWmSgq47vOCYnlXfx-94">
          <mxGeometry relative="1" as="geometry">
            <Array as="points">
              <mxPoint x="2810" y="2325" />
              <mxPoint x="2810" y="2091" />
            </Array>
          </mxGeometry>
        </mxCell>
        <mxCell id="JY0LWmSgq47vOCYnlXfx-89" value="signed&lt;br&gt;object&lt;br&gt;bundle" style="shape=note;whiteSpace=wrap;html=1;backgroundOutline=1;darkOpacity=0.05;size=31;" vertex="1" parent="JY0LWmSgq47vOCYnlXfx-1">
          <mxGeometry x="2680" y="2275.5" width="80" height="100" as="geometry" />
        </mxCell>
        <mxCell id="JY0LWmSgq47vOCYnlXfx-90" style="edgeStyle=orthogonalEdgeStyle;rounded=0;orthogonalLoop=1;jettySize=auto;html=1;exitX=1;exitY=0.5;exitDx=0;exitDy=0;entryX=0;entryY=0.5;entryDx=0;entryDy=0;entryPerimeter=0;" edge="1" parent="JY0LWmSgq47vOCYnlXfx-1" source="JY0LWmSgq47vOCYnlXfx-91" target="JY0LWmSgq47vOCYnlXfx-89">
          <mxGeometry relative="1" as="geometry" />
        </mxCell>
        <mxCell id="JY0LWmSgq47vOCYnlXfx-91" value="return&lt;br&gt;signed object" style="shape=process;whiteSpace=wrap;html=1;backgroundOutline=1;" vertex="1" parent="JY0LWmSgq47vOCYnlXfx-1">
          <mxGeometry x="2530" y="2295.5" width="120" height="60" as="geometry" />
        </mxCell>
        <mxCell id="JY0LWmSgq47vOCYnlXfx-92" value="return signed object" style="text;html=1;strokeColor=none;fillColor=none;align=center;verticalAlign=middle;whiteSpace=wrap;rounded=0;" vertex="1" parent="JY0LWmSgq47vOCYnlXfx-1">
          <mxGeometry x="2490.64" y="2550.5" width="290" height="20" as="geometry" />
        </mxCell>
        <mxCell id="JY0LWmSgq47vOCYnlXfx-93" style="edgeStyle=orthogonalEdgeStyle;rounded=0;orthogonalLoop=1;jettySize=auto;html=1;exitX=1;exitY=0.75;exitDx=0;exitDy=0;entryX=0;entryY=0.5;entryDx=0;entryDy=0;entryPerimeter=0;strokeColor=#000000;" edge="1" parent="JY0LWmSgq47vOCYnlXfx-1" source="JY0LWmSgq47vOCYnlXfx-94" target="JY0LWmSgq47vOCYnlXfx-104">
          <mxGeometry relative="1" as="geometry" />
        </mxCell>
        <mxCell id="JY0LWmSgq47vOCYnlXfx-94" value="unbundle elements" style="shape=process;whiteSpace=wrap;html=1;backgroundOutline=1;" vertex="1" parent="JY0LWmSgq47vOCYnlXfx-1">
          <mxGeometry x="2870" y="2061" width="120" height="60" as="geometry" />
        </mxCell>
        <mxCell id="JY0LWmSgq47vOCYnlXfx-95" style="edgeStyle=orthogonalEdgeStyle;rounded=0;orthogonalLoop=1;jettySize=auto;html=1;exitX=1;exitY=0.25;exitDx=0;exitDy=0;entryX=0;entryY=0.5;entryDx=0;entryDy=0;entryPerimeter=0;" edge="1" parent="JY0LWmSgq47vOCYnlXfx-1" source="JY0LWmSgq47vOCYnlXfx-94" target="JY0LWmSgq47vOCYnlXfx-97">
          <mxGeometry relative="1" as="geometry" />
        </mxCell>
        <mxCell id="JY0LWmSgq47vOCYnlXfx-96" style="edgeStyle=orthogonalEdgeStyle;rounded=0;orthogonalLoop=1;jettySize=auto;html=1;entryX=0;entryY=0.25;entryDx=0;entryDy=0;strokeColor=#FF8000;" edge="1" parent="JY0LWmSgq47vOCYnlXfx-1" source="JY0LWmSgq47vOCYnlXfx-97" target="JY0LWmSgq47vOCYnlXfx-100">
          <mxGeometry relative="1" as="geometry">
            <Array as="points">
              <mxPoint x="3130" y="2011" />
              <mxPoint x="3130" y="1836" />
            </Array>
          </mxGeometry>
        </mxCell>
        <mxCell id="JY0LWmSgq47vOCYnlXfx-97" value="signed object" style="shape=note;whiteSpace=wrap;html=1;backgroundOutline=1;darkOpacity=0.05;size=31;" vertex="1" parent="JY0LWmSgq47vOCYnlXfx-1">
          <mxGeometry x="3030" y="1961" width="80" height="100" as="geometry" />
        </mxCell>
        <mxCell id="JY0LWmSgq47vOCYnlXfx-98" value="unbundle elements" style="text;html=1;strokeColor=none;fillColor=none;align=center;verticalAlign=middle;whiteSpace=wrap;rounded=0;" vertex="1" parent="JY0LWmSgq47vOCYnlXfx-1">
          <mxGeometry x="2840.64" y="2316" width="329.36" height="20" as="geometry" />
        </mxCell>
        <mxCell id="JY0LWmSgq47vOCYnlXfx-99" style="edgeStyle=orthogonalEdgeStyle;rounded=0;orthogonalLoop=1;jettySize=auto;html=1;exitX=1;exitY=0.5;exitDx=0;exitDy=0;entryX=0;entryY=0.5;entryDx=0;entryDy=0;entryPerimeter=0;" edge="1" parent="JY0LWmSgq47vOCYnlXfx-1" source="JY0LWmSgq47vOCYnlXfx-100" target="JY0LWmSgq47vOCYnlXfx-31">
          <mxGeometry relative="1" as="geometry">
            <mxPoint x="3379.0400000000004" y="1851.5" as="targetPoint" />
          </mxGeometry>
        </mxCell>
        <mxCell id="JY0LWmSgq47vOCYnlXfx-100" value="update&lt;br&gt;signed object&lt;br&gt;and hash" style="shape=process;whiteSpace=wrap;html=1;backgroundOutline=1;" vertex="1" parent="JY0LWmSgq47vOCYnlXfx-1">
          <mxGeometry x="3219.3600000000006" y="1821.5" width="120" height="60" as="geometry" />
        </mxCell>
        <mxCell id="JY0LWmSgq47vOCYnlXfx-101" value="store object and metadata" style="text;html=1;align=center;verticalAlign=middle;resizable=0;points=[];autosize=1;" vertex="1" parent="JY0LWmSgq47vOCYnlXfx-1">
          <mxGeometry x="3250.0000000000005" y="2076" width="150" height="20" as="geometry" />
        </mxCell>
        <mxCell id="JY0LWmSgq47vOCYnlXfx-102" style="edgeStyle=orthogonalEdgeStyle;rounded=0;orthogonalLoop=1;jettySize=auto;html=1;entryX=0;entryY=0.5;entryDx=0;entryDy=0;strokeColor=#FF8000;" edge="1" parent="JY0LWmSgq47vOCYnlXfx-1" source="JY0LWmSgq47vOCYnlXfx-104" target="JY0LWmSgq47vOCYnlXfx-106">
          <mxGeometry relative="1" as="geometry">
            <Array as="points">
              <mxPoint x="3190" y="2171" />
              <mxPoint x="3190" y="2381" />
            </Array>
          </mxGeometry>
        </mxCell>
        <mxCell id="JY0LWmSgq47vOCYnlXfx-103" style="edgeStyle=orthogonalEdgeStyle;rounded=0;orthogonalLoop=1;jettySize=auto;html=1;entryX=0;entryY=0.75;entryDx=0;entryDy=0;strokeColor=#FF8000;" edge="1" parent="JY0LWmSgq47vOCYnlXfx-1" source="JY0LWmSgq47vOCYnlXfx-104" target="JY0LWmSgq47vOCYnlXfx-100">
          <mxGeometry relative="1" as="geometry">
            <Array as="points">
              <mxPoint x="3150" y="2171" />
              <mxPoint x="3150" y="1866" />
            </Array>
          </mxGeometry>
        </mxCell>
        <mxCell id="JY0LWmSgq47vOCYnlXfx-104" value="signed object metadata" style="shape=note;whiteSpace=wrap;html=1;backgroundOutline=1;darkOpacity=0.05;size=31;" vertex="1" parent="JY0LWmSgq47vOCYnlXfx-1">
          <mxGeometry x="3030" y="2121" width="80" height="100" as="geometry" />
        </mxCell>
        <mxCell id="JY0LWmSgq47vOCYnlXfx-105" style="edgeStyle=orthogonalEdgeStyle;rounded=0;orthogonalLoop=1;jettySize=auto;html=1;exitX=1;exitY=0.5;exitDx=0;exitDy=0;entryX=0;entryY=0.5;entryDx=0;entryDy=0;entryPerimeter=0;" edge="1" parent="JY0LWmSgq47vOCYnlXfx-1" source="JY0LWmSgq47vOCYnlXfx-106" target="JY0LWmSgq47vOCYnlXfx-32">
          <mxGeometry relative="1" as="geometry">
            <mxPoint x="3344.9999999999995" y="2381" as="targetPoint" />
          </mxGeometry>
        </mxCell>
        <mxCell id="JY0LWmSgq47vOCYnlXfx-106" value="update&lt;br&gt;CV - PV&lt;br&gt;data" style="shape=process;whiteSpace=wrap;html=1;backgroundOutline=1;" vertex="1" parent="JY0LWmSgq47vOCYnlXfx-1">
          <mxGeometry x="3219.3600000000006" y="2351" width="120" height="60" as="geometry" />
        </mxCell>
        <mxCell id="JY0LWmSgq47vOCYnlXfx-107" value="update CV - PV data" style="text;html=1;align=center;verticalAlign=middle;resizable=0;points=[];autosize=1;" vertex="1" parent="JY0LWmSgq47vOCYnlXfx-1">
          <mxGeometry x="3260.0000000000005" y="2606" width="130" height="20" as="geometry" />
        </mxCell>
        <mxCell id="JY0LWmSgq47vOCYnlXfx-154" value="object signing&lt;br&gt;report&amp;nbsp;" style="shape=document;whiteSpace=wrap;html=1;boundedLbl=1;" vertex="1" parent="JY0LWmSgq47vOCYnlXfx-1">
          <mxGeometry x="2220" y="2087" width="120" height="80" as="geometry" />
        </mxCell>
        <mxCell id="JY0LWmSgq47vOCYnlXfx-155" style="edgeStyle=orthogonalEdgeStyle;rounded=0;orthogonalLoop=1;jettySize=auto;html=1;exitX=0.5;exitY=1;exitDx=0;exitDy=0;entryX=0.5;entryY=0;entryDx=0;entryDy=0;" edge="1" parent="JY0LWmSgq47vOCYnlXfx-1" source="JY0LWmSgq47vOCYnlXfx-75" target="JY0LWmSgq47vOCYnlXfx-154">
          <mxGeometry relative="1" as="geometry">
            <mxPoint x="2279.9999999999995" y="2008" as="sourcePoint" />
          </mxGeometry>
        </mxCell>
        <mxCell id="JY0LWmSgq47vOCYnlXfx-158" value="signed&lt;br&gt;object&lt;br&gt;metadata" style="shape=note;whiteSpace=wrap;html=1;backgroundOutline=1;darkOpacity=0.05;size=26;" vertex="1" parent="JY0LWmSgq47vOCYnlXfx-1">
          <mxGeometry x="2380.5" y="2055.5" width="79.5" height="100" as="geometry" />
        </mxCell>
        <mxCell id="JY0LWmSgq47vOCYnlXfx-159" style="edgeStyle=orthogonalEdgeStyle;rounded=0;orthogonalLoop=1;jettySize=auto;html=1;entryX=0;entryY=0.75;entryDx=0;entryDy=0;strokeColor=#FF8000;exitX=1.004;exitY=0.498;exitDx=0;exitDy=0;exitPerimeter=0;" edge="1" parent="JY0LWmSgq47vOCYnlXfx-1" source="JY0LWmSgq47vOCYnlXfx-158" target="JY0LWmSgq47vOCYnlXfx-91">
          <mxGeometry relative="1" as="geometry">
            <mxPoint x="2520" y="2040" as="targetPoint" />
            <Array as="points">
              <mxPoint x="2500" y="2105" />
              <mxPoint x="2500" y="2341" />
            </Array>
          </mxGeometry>
        </mxCell>
      </root>
    </mxGraphModel>
  </diagram>
  <diagram name="isolated flows" id="ss9_WricgmfB57WrrUjj">
    <mxGraphModel dx="2352" dy="-1144" grid="1" gridSize="10" guides="1" tooltips="1" connect="1" arrows="1" fold="1" page="0" pageScale="1" pageWidth="850" pageHeight="1100" math="0" shadow="0">
      <root>
        <mxCell id="bMeL6aRZpi_suCFzuu4p-0" />
        <mxCell id="bMeL6aRZpi_suCFzuu4p-1" parent="bMeL6aRZpi_suCFzuu4p-0" />
        <mxCell id="bMeL6aRZpi_suCFzuu4p-108" value="" style="rounded=0;whiteSpace=wrap;html=1;strokeColor=none;fillColor=#D5E8D4;" vertex="1" parent="bMeL6aRZpi_suCFzuu4p-1">
          <mxGeometry x="689.9999999999998" y="2900" width="409.36" height="530" as="geometry" />
        </mxCell>
        <mxCell id="bMeL6aRZpi_suCFzuu4p-109" style="edgeStyle=orthogonalEdgeStyle;rounded=0;orthogonalLoop=1;jettySize=auto;html=1;entryX=0;entryY=0.5;entryDx=0;entryDy=0;" edge="1" parent="bMeL6aRZpi_suCFzuu4p-1" source="bMeL6aRZpi_suCFzuu4p-110" target="bMeL6aRZpi_suCFzuu4p-115">
          <mxGeometry relative="1" as="geometry" />
        </mxCell>
        <mxCell id="bMeL6aRZpi_suCFzuu4p-110" value="dual-scan unsigned object" style="shape=note;whiteSpace=wrap;html=1;backgroundOutline=1;darkOpacity=0.05;size=31;" vertex="1" parent="bMeL6aRZpi_suCFzuu4p-1">
          <mxGeometry x="569.9999999999998" y="3135" width="80" height="100" as="geometry" />
        </mxCell>
        <mxCell id="bMeL6aRZpi_suCFzuu4p-111" style="edgeStyle=orthogonalEdgeStyle;rounded=0;orthogonalLoop=1;jettySize=auto;html=1;exitX=1;exitY=0.5;exitDx=0;exitDy=0;entryX=0;entryY=0.5;entryDx=0;entryDy=0;entryPerimeter=0;" edge="1" parent="bMeL6aRZpi_suCFzuu4p-1" source="bMeL6aRZpi_suCFzuu4p-115" target="bMeL6aRZpi_suCFzuu4p-117">
          <mxGeometry relative="1" as="geometry" />
        </mxCell>
        <mxCell id="bMeL6aRZpi_suCFzuu4p-112" style="edgeStyle=orthogonalEdgeStyle;rounded=0;orthogonalLoop=1;jettySize=auto;html=1;exitX=0.25;exitY=1;exitDx=0;exitDy=0;entryX=1;entryY=0.5;entryDx=0;entryDy=0;dashed=1;" edge="1" parent="bMeL6aRZpi_suCFzuu4p-1" source="bMeL6aRZpi_suCFzuu4p-115" target="bMeL6aRZpi_suCFzuu4p-118">
          <mxGeometry relative="1" as="geometry" />
        </mxCell>
        <mxCell id="bMeL6aRZpi_suCFzuu4p-113" style="edgeStyle=orthogonalEdgeStyle;rounded=0;orthogonalLoop=1;jettySize=auto;html=1;exitX=1;exitY=0.25;exitDx=0;exitDy=0;entryX=0;entryY=0.5;entryDx=0;entryDy=0;entryPerimeter=0;strokeColor=#000000;" edge="1" parent="bMeL6aRZpi_suCFzuu4p-1" source="bMeL6aRZpi_suCFzuu4p-115" target="bMeL6aRZpi_suCFzuu4p-121">
          <mxGeometry relative="1" as="geometry" />
        </mxCell>
        <mxCell id="bMeL6aRZpi_suCFzuu4p-114" style="edgeStyle=orthogonalEdgeStyle;rounded=0;orthogonalLoop=1;jettySize=auto;html=1;exitX=1;exitY=0.75;exitDx=0;exitDy=0;entryX=0;entryY=0.5;entryDx=0;entryDy=0;entryPerimeter=0;" edge="1" parent="bMeL6aRZpi_suCFzuu4p-1" source="bMeL6aRZpi_suCFzuu4p-115" target="bMeL6aRZpi_suCFzuu4p-162">
          <mxGeometry relative="1" as="geometry" />
        </mxCell>
        <mxCell id="bMeL6aRZpi_suCFzuu4p-115" value="sign object" style="shape=process;whiteSpace=wrap;html=1;backgroundOutline=1;" vertex="1" parent="bMeL6aRZpi_suCFzuu4p-1">
          <mxGeometry x="829.3600000000004" y="3155" width="120" height="60" as="geometry" />
        </mxCell>
        <mxCell id="bMeL6aRZpi_suCFzuu4p-116" value="sign object" style="text;html=1;align=center;verticalAlign=middle;resizable=0;points=[];autosize=1;" vertex="1" parent="bMeL6aRZpi_suCFzuu4p-1">
          <mxGeometry x="859.6800000000001" y="3410" width="70" height="20" as="geometry" />
        </mxCell>
        <mxCell id="bMeL6aRZpi_suCFzuu4p-117" value="signed&lt;br&gt;object" style="shape=note;whiteSpace=wrap;html=1;backgroundOutline=1;darkOpacity=0.05;size=19;" vertex="1" parent="bMeL6aRZpi_suCFzuu4p-1">
          <mxGeometry x="989.3600000000004" y="3135" width="80" height="100" as="geometry" />
        </mxCell>
        <mxCell id="bMeL6aRZpi_suCFzuu4p-118" value="signing rejected" style="text;html=1;strokeColor=none;fillColor=none;align=center;verticalAlign=middle;whiteSpace=wrap;rounded=0;" vertex="1" parent="bMeL6aRZpi_suCFzuu4p-1">
          <mxGeometry x="739.3599999999999" y="3242.5" width="59.36" height="40" as="geometry" />
        </mxCell>
        <mxCell id="bMeL6aRZpi_suCFzuu4p-119" style="edgeStyle=orthogonalEdgeStyle;rounded=0;orthogonalLoop=1;jettySize=auto;html=1;entryX=0;entryY=0.25;entryDx=0;entryDy=0;strokeColor=#FF8000;" edge="1" parent="bMeL6aRZpi_suCFzuu4p-1" source="bMeL6aRZpi_suCFzuu4p-120" target="bMeL6aRZpi_suCFzuu4p-115">
          <mxGeometry relative="1" as="geometry" />
        </mxCell>
        <mxCell id="bMeL6aRZpi_suCFzuu4p-120" value="signing&lt;br&gt;keys" style="shape=cylinder3;whiteSpace=wrap;html=1;boundedLbl=1;backgroundOutline=1;size=15;" vertex="1" parent="bMeL6aRZpi_suCFzuu4p-1">
          <mxGeometry x="709.3599999999999" y="3055" width="80" height="100" as="geometry" />
        </mxCell>
        <mxCell id="bMeL6aRZpi_suCFzuu4p-121" value="signing log" style="shape=note;whiteSpace=wrap;html=1;backgroundOutline=1;darkOpacity=0.05;size=31;" vertex="1" parent="bMeL6aRZpi_suCFzuu4p-1">
          <mxGeometry x="989.3600000000004" y="3007" width="80" height="100" as="geometry" />
        </mxCell>
        <mxCell id="bMeL6aRZpi_suCFzuu4p-122" value="object metadata" style="shape=note;whiteSpace=wrap;html=1;backgroundOutline=1;darkOpacity=0.05;size=31;dashed=1;" vertex="1" parent="bMeL6aRZpi_suCFzuu4p-1">
          <mxGeometry x="569.9999999999998" y="3260" width="80" height="100" as="geometry" />
        </mxCell>
        <mxCell id="bMeL6aRZpi_suCFzuu4p-123" style="edgeStyle=orthogonalEdgeStyle;rounded=0;orthogonalLoop=1;jettySize=auto;html=1;entryX=0;entryY=0.75;entryDx=0;entryDy=0;strokeColor=#FF8000;dashed=1;exitX=1.005;exitY=0.5;exitDx=0;exitDy=0;exitPerimeter=0;" edge="1" parent="bMeL6aRZpi_suCFzuu4p-1" source="bMeL6aRZpi_suCFzuu4p-122" target="bMeL6aRZpi_suCFzuu4p-115">
          <mxGeometry relative="1" as="geometry">
            <Array as="points">
              <mxPoint x="670" y="3310" />
              <mxPoint x="670" y="3200" />
            </Array>
          </mxGeometry>
        </mxCell>
        <mxCell id="bMeL6aRZpi_suCFzuu4p-124" value="" style="rounded=0;whiteSpace=wrap;html=1;strokeColor=none;fillColor=#D4E1F5;" vertex="1" parent="bMeL6aRZpi_suCFzuu4p-1">
          <mxGeometry x="1560" y="2900" width="290" height="530" as="geometry" />
        </mxCell>
        <mxCell id="bMeL6aRZpi_suCFzuu4p-125" value="signed&lt;br&gt;object" style="shape=note;whiteSpace=wrap;html=1;backgroundOutline=1;darkOpacity=0.05;size=19;" vertex="1" parent="bMeL6aRZpi_suCFzuu4p-1">
          <mxGeometry x="1460.0000000000005" y="3135" width="80" height="100" as="geometry" />
        </mxCell>
        <mxCell id="bMeL6aRZpi_suCFzuu4p-126" style="edgeStyle=orthogonalEdgeStyle;rounded=0;orthogonalLoop=1;jettySize=auto;html=1;exitX=1;exitY=0.5;exitDx=0;exitDy=0;entryX=0;entryY=0.5;entryDx=0;entryDy=0;entryPerimeter=0;" edge="1" parent="bMeL6aRZpi_suCFzuu4p-1" source="bMeL6aRZpi_suCFzuu4p-127" target="bMeL6aRZpi_suCFzuu4p-130">
          <mxGeometry relative="1" as="geometry">
            <mxPoint x="1850.0000000000005" y="3185" as="targetPoint" />
          </mxGeometry>
        </mxCell>
        <mxCell id="bMeL6aRZpi_suCFzuu4p-127" value="archive&lt;br&gt;signed object" style="shape=process;whiteSpace=wrap;html=1;backgroundOutline=1;" vertex="1" parent="bMeL6aRZpi_suCFzuu4p-1">
          <mxGeometry x="1580.0000000000005" y="3155" width="120" height="60" as="geometry" />
        </mxCell>
        <mxCell id="bMeL6aRZpi_suCFzuu4p-128" value="archive signed object" style="text;html=1;align=center;verticalAlign=middle;resizable=0;points=[];autosize=1;" vertex="1" parent="bMeL6aRZpi_suCFzuu4p-1">
          <mxGeometry x="1640.0000000000005" y="3410" width="130" height="20" as="geometry" />
        </mxCell>
        <mxCell id="bMeL6aRZpi_suCFzuu4p-129" style="edgeStyle=orthogonalEdgeStyle;rounded=0;orthogonalLoop=1;jettySize=auto;html=1;strokeColor=#FF8000;entryX=0;entryY=0.5;entryDx=0;entryDy=0;exitX=0.999;exitY=0.503;exitDx=0;exitDy=0;exitPerimeter=0;" edge="1" parent="bMeL6aRZpi_suCFzuu4p-1" source="bMeL6aRZpi_suCFzuu4p-125" target="bMeL6aRZpi_suCFzuu4p-127">
          <mxGeometry relative="1" as="geometry">
            <mxPoint x="1490.6400000000003" y="3428" as="sourcePoint" />
            <mxPoint x="1260.6400000000003" y="3438" as="targetPoint" />
            <Array as="points">
              <mxPoint x="1550" y="3185" />
              <mxPoint x="1550" y="3185" />
            </Array>
          </mxGeometry>
        </mxCell>
        <mxCell id="bMeL6aRZpi_suCFzuu4p-130" value="signed&lt;br&gt;object&lt;br&gt;archive" style="shape=cylinder3;whiteSpace=wrap;html=1;boundedLbl=1;backgroundOutline=1;size=15;" vertex="1" parent="bMeL6aRZpi_suCFzuu4p-1">
          <mxGeometry x="1735" y="3135" width="80" height="100" as="geometry" />
        </mxCell>
        <mxCell id="bMeL6aRZpi_suCFzuu4p-131" value="" style="rounded=0;whiteSpace=wrap;html=1;strokeColor=none;fillColor=#FFE6CC;" vertex="1" parent="bMeL6aRZpi_suCFzuu4p-1">
          <mxGeometry x="2069.9999999999995" y="2900" width="290" height="530" as="geometry" />
        </mxCell>
        <mxCell id="bMeL6aRZpi_suCFzuu4p-132" style="edgeStyle=orthogonalEdgeStyle;rounded=0;orthogonalLoop=1;jettySize=auto;html=1;entryX=0;entryY=0.25;entryDx=0;entryDy=0;strokeColor=#FF8000;" edge="1" parent="bMeL6aRZpi_suCFzuu4p-1" source="bMeL6aRZpi_suCFzuu4p-133" target="bMeL6aRZpi_suCFzuu4p-136">
          <mxGeometry relative="1" as="geometry">
            <Array as="points">
              <mxPoint x="2050" y="3105" />
              <mxPoint x="2050" y="3170" />
            </Array>
          </mxGeometry>
        </mxCell>
        <mxCell id="bMeL6aRZpi_suCFzuu4p-133" value="signed&lt;br&gt;object" style="shape=note;whiteSpace=wrap;html=1;backgroundOutline=1;darkOpacity=0.05;size=19;" vertex="1" parent="bMeL6aRZpi_suCFzuu4p-1">
          <mxGeometry x="1950.0000000000005" y="3055" width="80" height="100" as="geometry" />
        </mxCell>
        <mxCell id="bMeL6aRZpi_suCFzuu4p-134" value="signed&lt;br&gt;object&lt;br&gt;bundle" style="shape=note;whiteSpace=wrap;html=1;backgroundOutline=1;darkOpacity=0.05;size=31;" vertex="1" parent="bMeL6aRZpi_suCFzuu4p-1">
          <mxGeometry x="2259.9999999999995" y="3135" width="80" height="100" as="geometry" />
        </mxCell>
        <mxCell id="bMeL6aRZpi_suCFzuu4p-135" style="edgeStyle=orthogonalEdgeStyle;rounded=0;orthogonalLoop=1;jettySize=auto;html=1;exitX=1;exitY=0.5;exitDx=0;exitDy=0;entryX=0;entryY=0.5;entryDx=0;entryDy=0;entryPerimeter=0;" edge="1" parent="bMeL6aRZpi_suCFzuu4p-1" source="bMeL6aRZpi_suCFzuu4p-136" target="bMeL6aRZpi_suCFzuu4p-134">
          <mxGeometry relative="1" as="geometry" />
        </mxCell>
        <mxCell id="bMeL6aRZpi_suCFzuu4p-136" value="return&lt;br&gt;signed object" style="shape=process;whiteSpace=wrap;html=1;backgroundOutline=1;" vertex="1" parent="bMeL6aRZpi_suCFzuu4p-1">
          <mxGeometry x="2109.9999999999995" y="3155" width="120" height="60" as="geometry" />
        </mxCell>
        <mxCell id="bMeL6aRZpi_suCFzuu4p-137" value="return signed object" style="text;html=1;strokeColor=none;fillColor=none;align=center;verticalAlign=middle;whiteSpace=wrap;rounded=0;" vertex="1" parent="bMeL6aRZpi_suCFzuu4p-1">
          <mxGeometry x="2069.9999999999995" y="3410" width="290" height="20" as="geometry" />
        </mxCell>
        <mxCell id="bMeL6aRZpi_suCFzuu4p-138" value="" style="rounded=0;whiteSpace=wrap;html=1;strokeColor=none;fillColor=#D5E8D4;" vertex="1" parent="bMeL6aRZpi_suCFzuu4p-1">
          <mxGeometry x="2610" y="2900" width="310" height="530" as="geometry" />
        </mxCell>
        <mxCell id="bMeL6aRZpi_suCFzuu4p-139" value="signed&lt;br&gt;object / hash datastore" style="shape=cylinder3;whiteSpace=wrap;html=1;boundedLbl=1;backgroundOutline=1;size=15;" vertex="1" parent="bMeL6aRZpi_suCFzuu4p-1">
          <mxGeometry x="2809.68" y="3135.5" width="80" height="100" as="geometry" />
        </mxCell>
        <mxCell id="bMeL6aRZpi_suCFzuu4p-140" style="edgeStyle=orthogonalEdgeStyle;rounded=0;orthogonalLoop=1;jettySize=auto;html=1;entryX=0;entryY=0.25;entryDx=0;entryDy=0;strokeColor=#FF8000;" edge="1" parent="bMeL6aRZpi_suCFzuu4p-1" source="bMeL6aRZpi_suCFzuu4p-141" target="bMeL6aRZpi_suCFzuu4p-143">
          <mxGeometry relative="1" as="geometry">
            <Array as="points">
              <mxPoint x="2590" y="3105" />
              <mxPoint x="2590" y="3170" />
            </Array>
          </mxGeometry>
        </mxCell>
        <mxCell id="bMeL6aRZpi_suCFzuu4p-141" value="signed object" style="shape=note;whiteSpace=wrap;html=1;backgroundOutline=1;darkOpacity=0.05;size=31;" vertex="1" parent="bMeL6aRZpi_suCFzuu4p-1">
          <mxGeometry x="2490" y="3055" width="80" height="100" as="geometry" />
        </mxCell>
        <mxCell id="bMeL6aRZpi_suCFzuu4p-142" style="edgeStyle=orthogonalEdgeStyle;rounded=0;orthogonalLoop=1;jettySize=auto;html=1;exitX=1;exitY=0.5;exitDx=0;exitDy=0;entryX=0;entryY=0.5;entryDx=0;entryDy=0;entryPerimeter=0;" edge="1" parent="bMeL6aRZpi_suCFzuu4p-1" source="bMeL6aRZpi_suCFzuu4p-143" target="bMeL6aRZpi_suCFzuu4p-139">
          <mxGeometry relative="1" as="geometry">
            <mxPoint x="2819.0400000000004" y="3185.5" as="targetPoint" />
          </mxGeometry>
        </mxCell>
        <mxCell id="bMeL6aRZpi_suCFzuu4p-143" value="update&lt;br&gt;signed object&lt;br&gt;and hash" style="shape=process;whiteSpace=wrap;html=1;backgroundOutline=1;" vertex="1" parent="bMeL6aRZpi_suCFzuu4p-1">
          <mxGeometry x="2659.3600000000006" y="3155.5" width="120" height="60" as="geometry" />
        </mxCell>
        <mxCell id="bMeL6aRZpi_suCFzuu4p-144" value="store object and metadata" style="text;html=1;align=center;verticalAlign=middle;resizable=0;points=[];autosize=1;" vertex="1" parent="bMeL6aRZpi_suCFzuu4p-1">
          <mxGeometry x="2690.0000000000005" y="3410" width="150" height="20" as="geometry" />
        </mxCell>
        <mxCell id="bMeL6aRZpi_suCFzuu4p-145" style="edgeStyle=orthogonalEdgeStyle;rounded=0;orthogonalLoop=1;jettySize=auto;html=1;entryX=0;entryY=0.75;entryDx=0;entryDy=0;strokeColor=#FF8000;exitX=1.005;exitY=0.495;exitDx=0;exitDy=0;exitPerimeter=0;" edge="1" parent="bMeL6aRZpi_suCFzuu4p-1" source="bMeL6aRZpi_suCFzuu4p-146" target="bMeL6aRZpi_suCFzuu4p-143">
          <mxGeometry relative="1" as="geometry">
            <Array as="points">
              <mxPoint x="2590" y="3265" />
              <mxPoint x="2590" y="3201" />
            </Array>
          </mxGeometry>
        </mxCell>
        <mxCell id="bMeL6aRZpi_suCFzuu4p-146" value="signed object metadata" style="shape=note;whiteSpace=wrap;html=1;backgroundOutline=1;darkOpacity=0.05;size=31;" vertex="1" parent="bMeL6aRZpi_suCFzuu4p-1">
          <mxGeometry x="2490" y="3215.5" width="80" height="100" as="geometry" />
        </mxCell>
        <mxCell id="bMeL6aRZpi_suCFzuu4p-147" value="" style="rounded=0;whiteSpace=wrap;html=1;strokeColor=none;fillColor=#D4E1F5;" vertex="1" parent="bMeL6aRZpi_suCFzuu4p-1">
          <mxGeometry x="3120" y="2900" width="310" height="530" as="geometry" />
        </mxCell>
        <mxCell id="bMeL6aRZpi_suCFzuu4p-148" value="CV - PV cross-reference&lt;br&gt;database" style="shape=cylinder3;whiteSpace=wrap;html=1;boundedLbl=1;backgroundOutline=1;size=15;" vertex="1" parent="bMeL6aRZpi_suCFzuu4p-1">
          <mxGeometry x="3319.6800000000003" y="3135.5" width="80" height="99" as="geometry" />
        </mxCell>
        <mxCell id="bMeL6aRZpi_suCFzuu4p-149" style="edgeStyle=orthogonalEdgeStyle;rounded=0;orthogonalLoop=1;jettySize=auto;html=1;entryX=0;entryY=0.5;entryDx=0;entryDy=0;strokeColor=#FF8000;" edge="1" parent="bMeL6aRZpi_suCFzuu4p-1" source="bMeL6aRZpi_suCFzuu4p-150" target="bMeL6aRZpi_suCFzuu4p-152">
          <mxGeometry relative="1" as="geometry">
            <Array as="points">
              <mxPoint x="3130" y="3185" />
              <mxPoint x="3130" y="3185" />
            </Array>
          </mxGeometry>
        </mxCell>
        <mxCell id="bMeL6aRZpi_suCFzuu4p-150" value="signed object metadata" style="shape=note;whiteSpace=wrap;html=1;backgroundOutline=1;darkOpacity=0.05;size=31;" vertex="1" parent="bMeL6aRZpi_suCFzuu4p-1">
          <mxGeometry x="3020" y="3135.5" width="80" height="100" as="geometry" />
        </mxCell>
        <mxCell id="bMeL6aRZpi_suCFzuu4p-151" style="edgeStyle=orthogonalEdgeStyle;rounded=0;orthogonalLoop=1;jettySize=auto;html=1;exitX=1;exitY=0.5;exitDx=0;exitDy=0;entryX=0;entryY=0.5;entryDx=0;entryDy=0;entryPerimeter=0;" edge="1" parent="bMeL6aRZpi_suCFzuu4p-1" source="bMeL6aRZpi_suCFzuu4p-152" target="bMeL6aRZpi_suCFzuu4p-148">
          <mxGeometry relative="1" as="geometry">
            <mxPoint x="3294.9999999999995" y="3185" as="targetPoint" />
          </mxGeometry>
        </mxCell>
        <mxCell id="bMeL6aRZpi_suCFzuu4p-152" value="update&lt;br&gt;CV - PV&lt;br&gt;data" style="shape=process;whiteSpace=wrap;html=1;backgroundOutline=1;" vertex="1" parent="bMeL6aRZpi_suCFzuu4p-1">
          <mxGeometry x="3169.3600000000006" y="3155" width="120" height="60" as="geometry" />
        </mxCell>
        <mxCell id="bMeL6aRZpi_suCFzuu4p-153" value="update CV - PV data" style="text;html=1;align=center;verticalAlign=middle;resizable=0;points=[];autosize=1;" vertex="1" parent="bMeL6aRZpi_suCFzuu4p-1">
          <mxGeometry x="3210.0000000000005" y="3410" width="130" height="20" as="geometry" />
        </mxCell>
        <mxCell id="bMeL6aRZpi_suCFzuu4p-156" style="edgeStyle=orthogonalEdgeStyle;rounded=0;orthogonalLoop=1;jettySize=auto;html=1;exitX=0.5;exitY=1;exitDx=0;exitDy=0;entryX=0.5;entryY=0;entryDx=0;entryDy=0;" edge="1" parent="bMeL6aRZpi_suCFzuu4p-1" source="bMeL6aRZpi_suCFzuu4p-115" target="bMeL6aRZpi_suCFzuu4p-157">
          <mxGeometry relative="1" as="geometry">
            <mxPoint x="889.3600000000006" y="3215.5" as="sourcePoint" />
          </mxGeometry>
        </mxCell>
        <mxCell id="bMeL6aRZpi_suCFzuu4p-157" value="object signing&lt;br&gt;report&amp;nbsp;" style="shape=document;whiteSpace=wrap;html=1;boundedLbl=1;" vertex="1" parent="bMeL6aRZpi_suCFzuu4p-1">
          <mxGeometry x="829.36" y="3294.5" width="120" height="80" as="geometry" />
        </mxCell>
        <mxCell id="bMeL6aRZpi_suCFzuu4p-160" value="signed&lt;br&gt;object&lt;br&gt;metadata" style="shape=note;whiteSpace=wrap;html=1;backgroundOutline=1;darkOpacity=0.05;size=26;" vertex="1" parent="bMeL6aRZpi_suCFzuu4p-1">
          <mxGeometry x="1950.5" y="3215.5" width="79.5" height="100" as="geometry" />
        </mxCell>
        <mxCell id="bMeL6aRZpi_suCFzuu4p-161" style="edgeStyle=orthogonalEdgeStyle;rounded=0;orthogonalLoop=1;jettySize=auto;html=1;entryX=0;entryY=0.75;entryDx=0;entryDy=0;strokeColor=#FF8000;" edge="1" parent="bMeL6aRZpi_suCFzuu4p-1" source="bMeL6aRZpi_suCFzuu4p-160" target="bMeL6aRZpi_suCFzuu4p-136">
          <mxGeometry relative="1" as="geometry">
            <mxPoint x="2139.5" y="3484.5" as="targetPoint" />
            <Array as="points">
              <mxPoint x="2050" y="3266" />
              <mxPoint x="2050" y="3200" />
            </Array>
          </mxGeometry>
        </mxCell>
        <mxCell id="bMeL6aRZpi_suCFzuu4p-162" value="signed&lt;br&gt;object&lt;br&gt;metadata" style="shape=note;whiteSpace=wrap;html=1;backgroundOutline=1;darkOpacity=0.05;size=26;" vertex="1" parent="bMeL6aRZpi_suCFzuu4p-1">
          <mxGeometry x="989.61" y="3260" width="79.5" height="100" as="geometry" />
        </mxCell>
      </root>
    </mxGraphModel>
  </diagram>
</mxfile>
